{"glyphs":{"0":{"ha":681,"x_min":0,"x_max":0,"o":"m 611 469 b 610 512 610 481 610 496 b 509 902 608 630 606 809 b 344 960 467 942 412 962 b 181 889 279 959 224 935 b 86 676 136 841 104 769 b 70 450 69 591 68 506 b 159 111 75 299 105 185 b 367 9 209 43 279 9 b 375 9 369 9 372 9 b 495 66 420 10 460 29 b 588 263 546 120 574 203 b 611 469 604 330 613 407 z m 460 436 b 425 231 456 357 444 284 b 352 147 411 193 387 148 b 294 188 329 146 310 159 b 256 495 262 247 248 362 b 323 783 264 621 290 734 b 353 806 330 793 341 806 b 355 806 354 806 354 806 b 460 436 431 796 468 610 z "},"1":{"ha":469,"x_min":0,"x_max":0,"o":"m 400 110 b 369 160 397 152 382 160 b 358 160 366 160 362 160 b 367 519 360 207 366 362 b 362 789 368 630 366 721 b 331 946 355 907 342 935 b 314 954 325 953 318 954 b 123 907 244 954 195 938 b 123 907 123 907 123 907 b 123 907 123 907 123 907 b 76 833 79 885 70 854 b 130 801 82 812 104 799 b 160 810 142 802 152 806 b 160 161 157 741 160 253 b 128 160 146 161 134 160 b 69 73 86 158 68 115 b 120 -5 71 35 87 -5 b 120 -5 120 -5 120 -5 b 188 -5 127 -5 154 -5 b 308 -6 241 -6 280 -6 b 362 -5 342 -6 359 -6 b 400 110 397 0 402 81 z "},"2":{"ha":735,"x_min":0,"x_max":0,"o":"m 663 141 b 606 184 655 169 634 184 b 544 180 592 184 571 182 b 304 194 469 173 342 161 b 294 214 297 199 294 206 b 388 417 293 248 339 330 b 551 834 465 554 561 724 b 505 923 547 873 532 903 b 297 946 451 964 366 957 b 104 832 234 936 141 888 b 99 721 77 793 75 747 b 192 716 109 710 137 689 b 238 745 205 722 221 733 b 332 788 268 765 313 796 b 346 753 339 784 344 772 b 178 396 351 691 251 520 b 84 223 135 323 99 260 b 86 91 64 174 65 130 b 149 31 106 57 136 38 b 374 5 191 8 314 5 b 395 5 383 5 390 5 b 625 31 466 6 593 13 b 663 141 660 52 673 106 z "},"3":{"ha":700,"x_min":0,"x_max":0,"o":"m 503 488 b 403 516 481 498 448 510 b 554 728 464 555 554 637 b 509 886 554 789 538 845 b 380 954 477 931 432 954 b 213 924 329 954 267 943 b 96 849 179 912 119 887 b 91 756 67 815 73 778 b 178 744 108 736 142 724 l 179 744 b 342 785 210 761 291 804 b 383 735 362 777 375 761 b 294 653 393 705 356 684 b 158 492 226 619 140 576 b 337 341 175 412 261 374 b 446 268 390 318 439 297 b 435 203 453 242 450 220 b 317 165 409 173 350 163 b 201 262 274 169 230 225 b 116 282 178 291 146 299 b 77 164 81 263 57 214 b 141 66 87 137 105 98 b 290 3 179 32 227 12 b 349 -1 310 0 330 -1 b 545 62 426 -1 496 21 b 630 272 601 110 630 180 b 503 488 630 400 561 460 z "},"4":{"ha":803,"x_min":0,"x_max":0,"o":"m 732 265 b 696 335 728 299 715 323 b 686 522 695 413 692 507 b 612 580 667 570 631 579 b 607 580 610 580 609 580 b 512 524 570 580 530 557 b 477 341 487 479 479 406 b 356 339 428 340 382 339 b 653 849 411 432 639 818 b 611 938 669 882 652 917 b 437 894 560 963 484 957 b 222 550 390 832 306 697 b 74 259 155 433 81 295 b 86 164 65 213 69 182 b 130 147 96 152 111 147 b 250 146 142 147 189 146 b 486 143 335 145 416 144 b 511 28 493 91 502 49 b 584 -9 521 8 548 -6 b 598 -10 588 -10 593 -10 b 684 26 629 -10 664 -1 b 695 114 687 30 692 36 b 696 145 695 123 696 134 b 732 265 728 152 736 225 z m 703 214 b 697 185 702 202 699 192 b 697 273 697 212 697 242 b 697 292 697 279 697 286 b 698 288 697 291 698 290 b 703 214 705 269 707 241 z "},"5":{"ha":696,"x_min":0,"x_max":0,"o":"m 467 555 l 461 558 b 316 568 418 579 361 573 b 255 568 292 566 262 562 b 255 570 255 568 255 568 b 314 758 253 589 259 626 b 374 776 315 761 323 771 b 491 777 409 779 453 778 b 572 779 528 777 557 776 b 626 877 616 788 631 834 b 576 946 622 911 605 946 b 538 948 569 946 555 947 b 231 927 450 952 288 960 b 76 517 174 895 84 677 b 99 449 74 488 82 465 b 268 411 134 413 202 412 b 393 395 316 410 366 410 b 445 243 443 367 462 312 b 393 170 436 206 419 182 b 280 179 352 151 301 170 b 220 235 257 189 237 214 b 154 284 199 260 180 284 b 87 258 126 284 102 275 b 70 199 77 248 66 229 b 278 12 79 139 158 23 b 331 9 296 10 314 9 b 522 65 410 9 474 28 b 620 270 578 109 611 178 b 575 476 628 358 614 425 b 467 555 542 519 498 540 z "},"6":{"ha":678,"x_min":0,"x_max":0,"o":"m 598 366 b 458 523 583 438 531 497 b 309 521 406 541 353 540 b 432 894 351 667 407 851 b 434 903 434 897 434 900 b 434 905 434 904 434 904 b 416 928 434 911 432 921 b 291 911 386 940 320 934 b 144 615 231 871 168 691 b 69 255 98 471 68 326 b 141 73 71 182 96 119 b 300 5 183 29 240 5 b 548 102 338 5 469 12 b 598 366 604 165 621 254 z m 408 171 b 320 142 388 151 358 141 b 279 160 303 142 290 148 b 255 305 254 187 245 242 b 262 345 257 318 259 332 b 265 356 263 348 264 352 b 375 397 282 381 333 405 b 440 302 413 389 435 356 b 408 171 445 242 434 197 z "},"7":{"ha":696,"x_min":0,"x_max":0,"o":"m 591 930 b 361 954 560 952 407 954 b 127 932 330 954 172 953 b 82 900 109 931 93 920 b 81 807 66 871 65 832 b 131 782 92 790 110 781 l 135 782 b 430 789 310 792 400 793 b 403 735 424 777 414 757 b 224 350 362 651 284 496 b 142 3 149 168 122 54 b 191 -25 147 -12 164 -21 b 221 -27 200 -26 210 -27 b 320 -1 260 -27 307 -19 b 484 406 343 30 460 343 b 625 816 535 544 623 786 b 591 930 629 859 628 903 z "},"8":{"ha":672,"x_min":0,"x_max":0,"o":"m 488 477 b 512 493 497 482 505 487 b 602 693 553 527 602 588 b 548 867 602 742 593 812 b 333 954 502 925 429 954 b 170 902 293 954 227 941 b 69 715 124 871 69 814 b 148 495 69 617 96 543 b 182 469 158 485 170 476 b 170 461 178 466 174 463 b 69 273 124 430 69 372 b 148 53 69 175 96 101 b 333 -10 193 11 255 -10 b 333 -10 333 -10 333 -10 b 512 52 398 -10 464 13 b 602 251 553 85 602 147 b 548 426 602 300 593 370 b 488 477 531 446 512 463 z m 288 764 b 344 791 307 781 328 791 b 349 791 346 791 347 791 b 355 790 351 791 353 790 b 427 732 397 784 423 778 b 396 645 430 703 418 670 b 336 615 378 626 356 615 b 251 694 288 615 253 646 b 288 764 249 715 264 742 z m 336 122 b 218 252 282 122 218 145 b 337 371 218 325 257 363 b 419 348 372 374 399 366 b 454 246 442 327 454 292 b 336 122 454 203 429 122 z "},"9":{"ha":678,"x_min":0,"x_max":0,"o":"m 546 874 b 391 951 506 921 450 949 b 135 860 352 953 218 952 b 75 594 78 798 58 708 b 204 427 86 520 135 458 b 356 421 255 405 311 403 b 215 44 307 273 242 86 b 213 34 213 41 213 37 b 213 32 213 34 213 33 b 229 8 213 26 214 15 b 278 -1 240 2 258 -1 b 355 19 306 -1 337 5 b 516 316 417 57 489 240 b 608 683 569 462 606 610 b 546 874 611 758 589 825 z m 421 641 b 411 600 418 628 415 614 b 409 589 411 597 410 593 b 296 553 390 563 337 542 b 236 653 259 563 238 598 b 273 784 234 714 246 758 b 351 812 292 803 318 812 b 364 811 355 812 359 812 b 405 789 381 810 395 803 b 421 641 427 761 433 704 z "},"\u0000":{"ha":0,"x_min":0,"x_max":0,"o":""},"\n":{"ha":0,"x_min":0,"x_max":0,"o":""},"\r":{"ha":0,"x_min":0,"x_max":0,"o":""}," ":{"ha":414,"x_min":0,"x_max":0,"o":""},"!":{"ha":369,"x_min":0,"x_max":0,"o":"m 299 937 b 187 1027 282 995 240 1028 b 72 933 133 1025 85 986 b 90 556 64 900 76 714 b 116 318 98 465 107 381 b 145 187 132 205 141 192 b 192 169 154 174 175 169 b 197 169 194 169 195 169 b 237 191 216 170 230 178 b 254 319 239 195 243 202 b 276 567 261 383 269 471 b 295 813 283 655 290 745 b 299 937 302 928 301 933 z m 198 145 b 144 124 177 145 158 138 b 121 64 129 109 121 88 b 201 -14 121 -1 165 -14 b 257 11 223 -14 243 -5 b 276 69 269 26 276 47 b 198 145 276 115 245 145 z "},"\"":{"ha":382,"x_min":0,"x_max":0,"o":"m 304 1008 b 240 1024 289 1020 261 1027 b 213 1007 224 1021 216 1013 b 220 922 210 1002 207 998 b 236 844 231 850 234 846 b 267 833 242 835 256 833 b 286 835 276 833 283 834 b 299 843 293 837 296 840 b 301 851 301 846 301 849 b 303 867 302 853 302 860 b 304 1008 317 976 315 999 z m 163 1008 b 99 1024 149 1020 120 1027 b 72 1007 83 1021 76 1013 b 79 922 69 1002 66 998 b 95 844 91 850 93 846 b 126 833 101 835 115 833 b 145 835 135 833 142 834 b 158 843 152 837 156 840 b 161 851 160 846 161 849 b 163 867 161 853 162 860 b 163 1008 176 976 174 999 z "},"#":{"ha":1046,"x_min":0,"x_max":0,"o":"m 975 334 b 931 377 972 360 954 377 b 896 377 925 377 913 377 b 787 377 858 377 821 377 b 788 452 787 404 788 429 b 789 537 789 476 789 505 b 935 543 866 539 928 541 b 973 606 964 551 976 581 b 929 648 970 631 952 648 b 929 648 929 648 929 648 b 893 648 922 648 910 648 b 791 648 858 648 823 648 b 790 868 792 756 792 858 b 728 908 783 897 753 910 b 684 865 702 905 685 888 b 683 829 684 858 684 846 b 678 648 681 764 679 703 b 409 645 570 648 481 647 b 408 868 410 754 411 858 b 346 908 401 897 372 910 b 315 894 334 906 323 901 b 303 865 307 886 303 876 b 302 829 302 858 302 846 b 296 642 299 761 298 699 b 91 622 142 637 103 629 b 70 574 77 614 68 594 b 95 536 71 556 80 542 b 239 531 99 535 107 531 b 282 531 253 531 267 531 b 293 531 286 531 290 531 b 291 370 292 470 291 417 b 93 350 143 365 105 357 b 72 302 79 342 70 322 b 97 265 73 284 82 271 b 241 259 102 263 109 260 b 284 259 255 259 269 259 b 290 259 286 259 288 259 b 304 27 290 82 298 39 b 349 4 312 13 330 4 b 351 4 350 4 351 4 b 390 28 369 4 383 13 b 400 172 392 32 395 40 b 402 259 401 200 402 229 b 521 261 445 260 487 260 b 672 263 561 261 616 262 b 686 27 672 83 679 39 b 731 4 693 13 712 4 b 733 4 732 4 732 4 b 771 28 751 4 765 13 b 781 172 773 32 777 40 b 784 265 782 201 783 233 b 937 271 864 267 930 269 b 975 334 967 279 979 309 z m 673 376 b 405 373 564 376 476 375 b 406 452 406 401 406 428 b 408 531 407 474 407 502 b 519 532 448 531 486 532 b 675 535 561 533 617 534 b 673 376 674 475 673 423 z "},"$":{"ha":607,"x_min":0,"x_max":0,"o":"m 491 523 b 379 587 473 547 432 565 b 357 597 372 591 365 594 b 357 794 358 672 357 739 b 382 760 372 782 382 769 b 422 724 382 744 392 726 b 495 770 450 722 491 737 b 493 779 495 773 494 777 b 494 782 493 780 493 781 b 469 874 498 817 490 848 b 355 933 440 908 393 925 b 347 989 353 981 350 985 b 277 1014 335 1005 301 1023 b 254 979 263 1009 254 996 b 253 935 253 970 253 955 b 69 703 128 912 69 838 b 253 512 69 604 156 554 b 254 435 253 486 253 460 b 254 219 254 360 254 284 b 228 337 228 264 227 328 b 197 367 228 342 229 363 b 98 312 165 371 103 355 b 98 312 98 312 98 312 b 98 312 98 312 98 312 b 97 311 97 311 97 311 b 97 310 97 310 97 310 b 129 149 95 241 105 188 b 254 70 155 106 197 79 b 254 26 254 46 254 30 b 290 -14 252 5 267 -11 b 297 -14 292 -14 295 -14 b 350 23 321 -14 347 -1 b 352 66 351 26 351 42 b 475 116 405 71 445 88 b 534 304 524 164 533 236 b 534 305 534 304 534 304 b 534 306 534 305 534 306 l 535 313 b 491 523 540 382 545 453 z m 191 741 b 212 785 191 757 198 771 b 253 810 224 796 238 804 b 253 651 253 762 253 708 b 191 741 217 676 191 705 z m 403 273 b 354 180 398 249 384 199 b 357 468 355 262 356 366 b 376 459 363 465 370 462 b 377 459 376 459 377 459 b 403 273 403 446 420 358 z "},"%":{"ha":574,"x_min":0,"x_max":0,"o":"m 504 906 b 454 970 507 940 482 964 b 394 942 427 977 403 966 b 379 905 391 936 386 923 b 79 51 102 194 75 78 b 120 11 82 34 99 17 b 136 8 125 9 131 8 b 168 21 149 8 159 12 b 232 170 171 25 178 32 b 345 465 270 266 314 383 b 504 906 396 601 502 889 z m 402 284 b 303 184 347 284 303 239 b 322 112 303 153 309 130 b 406 75 339 88 367 75 b 479 108 435 75 461 87 b 504 184 495 128 504 155 b 402 284 504 237 456 284 z m 172 731 b 245 763 202 731 227 742 b 270 840 261 783 270 810 b 168 939 270 893 222 939 b 69 839 114 939 69 894 b 88 767 69 808 76 785 b 172 731 105 743 133 731 z "},"&":{"ha":661,"x_min":0,"x_max":0,"o":"m 576 541 b 523 559 564 554 546 560 b 464 529 498 558 478 548 b 445 438 440 497 443 451 b 445 437 445 437 445 437 b 453 414 442 428 445 418 b 527 177 528 368 547 261 b 350 24 509 102 454 24 b 350 24 350 24 350 24 b 345 25 349 25 347 25 b 198 208 248 27 201 121 b 335 404 195 298 236 393 b 335 404 335 404 335 404 b 336 404 336 404 336 404 b 337 404 337 404 337 404 b 413 503 397 416 416 465 b 335 591 411 544 383 589 b 334 591 335 591 335 591 b 334 591 334 591 334 591 l 334 591 b 332 591 333 591 333 591 b 331 591 332 591 331 591 b 233 607 288 582 254 588 b 210 683 217 623 209 648 b 292 808 210 760 253 808 b 292 808 292 808 292 808 b 361 733 331 808 344 778 b 370 708 364 724 367 716 b 450 659 387 666 423 652 b 491 722 475 666 491 691 b 490 728 491 724 491 726 b 491 736 491 730 491 733 b 439 874 485 787 467 837 b 302 950 405 921 357 947 b 152 874 246 953 193 926 b 94 716 118 829 96 770 b 146 532 92 662 99 586 b 215 485 165 511 188 495 b 163 454 196 476 178 466 b 69 243 102 407 69 334 b 120 74 69 170 86 115 b 333 -13 163 23 233 -6 b 334 -13 333 -13 334 -13 b 352 -14 340 -14 346 -14 b 559 167 472 -14 538 78 b 477 442 582 262 560 384 b 477 442 477 442 477 442 b 489 504 475 462 477 488 b 524 521 497 515 508 520 b 553 513 534 521 546 520 b 559 490 557 508 559 501 b 576 471 559 479 566 471 b 592 490 585 471 592 479 b 576 541 592 512 587 529 z "},"'":{"ha":242,"x_min":0,"x_max":0,"o":"m 163 1008 b 99 1024 149 1020 120 1027 b 72 1007 83 1021 76 1013 b 79 922 69 1002 66 998 b 95 844 91 850 93 846 b 126 833 101 835 114 833 b 145 835 134 833 142 834 b 158 843 152 837 156 840 b 161 851 160 846 161 849 b 163 867 161 853 162 860 b 163 1008 176 976 174 999 z "},"(":{"ha":364,"x_min":0,"x_max":0,"o":"m 294 15 b 294 17 294 16 294 16 b 294 19 294 18 294 19 b 294 20 294 20 294 20 b 294 20 294 20 294 20 b 293 22 293 21 293 21 b 293 22 293 22 293 22 b 292 23 293 22 293 23 b 292 25 292 24 292 25 b 291 26 291 25 291 26 b 290 27 291 26 291 26 b 290 28 290 27 290 27 b 289 28 290 28 290 28 b 289 29 289 28 289 28 b 288 30 288 29 288 29 b 287 30 287 30 287 30 b 284 32 286 31 285 31 b 284 32 284 32 284 32 b 282 32 283 32 282 32 b 282 32 282 32 282 32 b 172 396 223 42 180 185 b 273 912 163 652 210 893 b 285 932 281 914 286 923 b 285 933 285 933 285 933 b 272 954 286 943 280 953 b 129 844 214 962 165 924 b 70 440 87 751 65 600 b 153 60 75 279 106 137 b 252 -10 181 14 215 -10 b 283 -5 262 -10 273 -8 b 285 -4 284 -4 284 -4 b 286 -3 285 -4 286 -4 b 286 -3 286 -3 286 -3 b 287 -2 287 -3 287 -3 b 287 -2 287 -2 287 -2 b 288 -2 288 -2 288 -2 b 289 -1 289 -1 289 -1 b 290 1 290 0 290 0 b 291 2 291 1 291 1 b 292 3 291 2 291 2 b 292 4 292 3 292 3 b 294 9 293 5 294 7 b 294 10 294 10 294 10 b 294 11 294 10 294 11 b 294 11 294 11 294 11 b 294 12 294 11 294 12 b 294 12 294 12 294 12 b 295 14 294 13 295 13 b 295 14 295 14 295 14 b 294 15 295 14 294 15 z "},")":{"ha":336,"x_min":0,"x_max":0,"o":"m 208 858 b 91 949 170 944 123 955 b 78 928 83 948 77 939 b 89 908 77 919 82 910 b 157 727 115 899 140 831 b 174 370 173 624 179 494 b 82 28 165 172 129 38 b 82 28 82 28 82 28 b 82 28 82 28 82 28 b 81 28 82 28 81 28 b 79 27 80 28 80 27 b 79 27 79 27 79 27 b 78 27 79 27 79 27 b 75 24 77 26 76 25 b 74 23 75 24 74 23 b 73 22 74 22 73 22 b 73 22 73 22 73 22 b 72 19 72 21 72 20 b 71 17 71 19 71 18 b 70 16 71 17 71 16 b 70 15 70 16 70 15 b 70 14 70 15 70 15 b 70 14 70 14 70 14 b 70 13 70 14 70 13 b 70 11 70 12 70 12 b 70 11 70 11 70 11 b 70 7 69 10 69 8 b 70 5 70 6 70 5 b 70 3 70 4 70 4 b 71 2 70 3 71 2 b 71 0 71 1 71 1 b 72 -1 72 0 72 -1 b 73 -3 72 -2 73 -2 b 74 -4 73 -3 73 -3 b 76 -6 74 -5 75 -5 b 77 -7 76 -6 77 -7 b 78 -7 77 -7 77 -7 b 79 -8 78 -8 78 -8 b 80 -8 79 -8 79 -8 b 80 -9 80 -9 80 -9 b 108 -14 90 -12 99 -14 b 185 39 136 -14 163 4 b 266 433 231 112 262 259 b 208 858 271 607 249 766 z "},"*":{"ha":383,"x_min":0,"x_max":0,"o":"m 313 840 b 293 860 309 858 297 860 b 284 860 291 860 288 860 b 274 861 281 860 277 861 b 292 882 290 878 291 880 b 273 921 298 897 284 914 b 257 926 267 925 262 926 b 244 922 250 926 246 923 b 238 916 243 920 241 918 b 230 908 235 913 232 911 b 228 932 229 928 228 930 b 187 946 221 947 199 948 b 169 936 177 944 172 940 b 166 926 166 932 166 927 b 165 917 166 924 166 921 b 165 908 165 914 165 911 b 127 931 139 932 132 932 b 103 917 115 931 105 920 b 95 896 97 910 94 903 b 122 860 95 892 96 888 b 77 849 85 858 80 853 b 70 822 69 841 69 825 b 79 801 70 813 74 806 b 114 796 82 799 85 797 b 96 764 96 774 96 769 b 110 739 96 752 107 741 b 129 731 116 734 122 731 b 131 731 129 731 130 731 b 164 755 135 732 138 732 b 174 709 166 717 170 713 b 198 702 181 703 192 702 b 201 702 199 702 200 702 b 222 711 210 703 218 706 b 228 753 224 714 227 717 b 247 737 244 738 246 737 b 255 735 250 736 252 735 b 286 756 268 735 281 747 b 292 772 290 762 292 768 b 287 785 292 779 288 783 b 281 791 286 786 283 788 b 277 796 279 793 278 794 b 300 798 296 797 298 798 b 313 840 314 805 316 827 z "},"+":{"ha":740,"x_min":0,"x_max":0,"o":"m 670 442 b 637 478 666 464 653 478 b 614 478 633 478 625 478 b 441 479 548 479 491 479 b 441 599 441 523 441 564 b 437 692 440 685 438 689 b 372 719 429 715 397 723 b 346 707 361 717 352 713 b 336 686 340 702 336 695 b 335 663 336 682 335 674 b 331 479 333 593 332 532 b 84 457 106 476 91 464 b 70 412 72 448 68 427 b 87 377 71 396 77 383 b 185 370 92 375 97 371 b 298 369 221 369 261 369 b 330 369 309 369 320 369 b 348 133 330 155 342 141 b 389 118 357 123 374 118 b 394 118 391 118 392 118 b 428 136 410 119 422 125 b 437 234 431 140 434 145 b 440 370 438 277 439 326 b 551 372 480 370 518 371 b 644 376 637 374 641 375 b 670 442 667 385 674 417 z "},",":{"ha":260,"x_min":0,"x_max":0,"o":"m 191 43 b 191 45 191 44 191 45 b 130 105 191 81 166 105 b 87 88 113 105 98 99 b 69 41 76 77 69 60 b 121 -19 70 6 88 -15 b 108 -80 121 -75 111 -80 b 108 -80 108 -80 108 -80 b 106 -81 107 -81 107 -81 b 104 -82 105 -81 105 -81 b 103 -82 104 -82 104 -82 b 102 -83 103 -82 102 -83 b 101 -84 102 -83 101 -83 b 100 -85 101 -84 100 -84 b 99 -86 100 -85 99 -85 b 99 -86 99 -86 99 -86 b 98 -87 98 -87 98 -87 b 98 -88 98 -87 98 -87 b 97 -89 98 -88 97 -88 b 97 -89 97 -89 97 -89 b 97 -90 97 -89 97 -90 b 96 -93 96 -91 96 -92 b 96 -95 96 -94 96 -94 b 96 -96 96 -95 96 -96 b 96 -96 96 -96 96 -96 b 97 -99 96 -97 97 -98 b 97 -100 97 -99 97 -100 b 98 -101 98 -100 98 -101 b 100 -104 98 -102 99 -103 b 100 -104 100 -104 100 -104 b 101 -105 101 -105 101 -105 b 102 -106 102 -106 102 -106 b 103 -106 102 -106 103 -106 b 103 -107 103 -106 103 -106 b 104 -107 104 -107 104 -107 b 105 -107 104 -107 104 -107 b 105 -107 105 -107 105 -107 b 106 -108 105 -107 106 -108 b 109 -108 107 -108 108 -108 b 110 -108 109 -108 110 -108 b 111 -108 111 -108 111 -108 b 177 -35 140 -107 162 -82 b 191 43 187 -1 191 34 b 191 43 191 43 191 43 z m 150 -26 b 149 -30 150 -27 149 -29 b 149 -17 149 -25 149 -21 b 153 -16 150 -17 152 -16 b 150 -26 152 -19 151 -23 z "},"-":{"ha":740,"x_min":0,"x_max":0,"o":"m 670 442 b 658 468 668 453 664 462 b 637 478 652 474 645 478 b 614 478 633 478 625 478 b 84 457 117 485 94 466 b 70 412 72 448 68 427 b 87 377 71 396 77 383 b 185 370 92 375 97 371 b 298 369 221 369 261 369 b 369 369 324 369 348 369 b 551 372 433 370 499 370 b 644 376 637 374 641 375 b 670 442 667 385 674 417 z "},".":{"ha":260,"x_min":0,"x_max":0,"o":"m 130 115 b 87 98 113 115 98 109 b 69 52 76 87 69 70 b 132 -9 70 12 92 -9 b 191 55 167 -9 191 17 b 130 115 191 91 166 115 z "},"/":{"ha":606,"x_min":0,"x_max":0,"o":"m 489 964 b 471 966 483 965 477 966 b 428 939 452 966 435 956 b 411 902 425 932 419 920 b 70 64 99 206 67 91 b 108 22 71 47 87 29 b 127 18 114 19 121 18 b 156 30 138 18 148 22 b 228 175 160 33 167 40 b 355 464 270 269 321 384 b 536 897 413 598 533 880 b 489 964 541 930 516 956 z "},":":{"ha":274,"x_min":0,"x_max":0,"o":"m 143 445 b 101 428 126 445 112 439 b 83 382 89 417 83 400 b 145 321 83 343 105 321 b 189 341 163 321 178 328 b 204 386 199 352 204 368 b 143 445 204 421 180 445 z m 132 573 b 176 593 149 573 165 580 b 191 638 185 604 191 620 b 130 697 191 673 166 697 b 87 681 113 697 98 692 b 69 634 76 669 69 652 b 132 573 70 595 92 573 z "},";":{"ha":265,"x_min":0,"x_max":0,"o":"m 136 588 b 180 607 154 588 169 595 b 195 652 190 619 195 635 b 134 712 195 688 171 712 b 92 695 117 712 103 706 b 74 649 80 684 74 667 b 136 588 74 609 96 588 z m 191 389 b 191 390 191 389 191 390 b 130 450 191 426 166 450 b 87 433 113 450 98 444 b 69 387 76 422 69 405 b 121 326 70 351 88 330 b 108 265 121 270 111 265 b 107 265 108 265 107 265 b 107 265 107 265 107 265 b 106 264 107 264 106 264 b 101 261 104 264 102 263 b 100 261 101 261 100 261 b 100 260 100 260 100 260 b 99 259 99 260 99 260 b 98 258 99 259 99 259 b 98 258 98 258 98 258 b 98 257 98 257 98 257 b 97 256 97 256 97 256 l 97 256 b 97 255 97 255 97 255 b 96 254 97 254 97 254 b 96 253 96 253 96 253 b 96 252 96 253 96 252 b 96 250 96 252 96 251 b 96 249 96 250 96 249 b 96 249 96 249 96 249 b 97 245 96 248 97 246 b 98 244 98 245 98 245 b 98 243 98 244 98 244 b 99 243 98 243 99 243 b 99 242 99 242 99 242 b 101 240 100 241 100 241 b 102 240 101 240 102 240 b 103 239 102 239 102 239 b 103 239 103 239 103 239 b 104 238 104 238 104 238 b 105 238 105 238 105 238 b 106 237 106 238 106 238 b 107 237 107 237 107 237 b 107 237 107 237 107 237 b 108 237 108 237 108 237 b 110 237 109 237 110 237 b 111 237 111 237 111 237 b 177 310 140 238 162 263 b 191 388 187 344 191 379 b 191 389 191 388 191 389 z m 150 319 b 149 316 150 318 149 317 b 149 328 149 320 149 324 b 153 330 150 329 152 329 b 150 319 152 326 151 322 z "},"<":{"ha":693,"x_min":0,"x_max":0,"o":"m 613 682 b 609 752 631 699 624 731 b 564 771 596 770 579 777 b 543 761 560 769 553 766 b 113 553 278 642 164 584 b 113 553 113 553 113 553 b 105 548 111 552 108 550 b 105 548 105 548 105 548 b 71 519 77 530 73 523 b 71 501 70 515 68 509 b 74 493 72 498 73 496 b 85 481 75 491 76 489 b 85 481 85 481 85 481 b 114 456 94 471 106 462 b 146 430 122 449 133 441 b 288 317 183 400 233 360 b 431 206 340 276 392 236 b 506 153 499 155 502 154 b 516 151 509 152 512 151 b 567 189 536 151 556 169 b 562 237 577 208 575 227 b 541 254 558 240 551 246 b 316 429 497 289 404 363 b 229 493 281 456 253 477 b 374 561 264 509 311 531 b 613 682 377 562 602 670 z "},"=":{"ha":668,"x_min":0,"x_max":0,"o":"m 86 498 b 267 491 90 496 99 491 b 333 491 287 491 308 491 b 492 493 389 491 447 492 b 574 497 567 495 571 496 b 597 557 595 505 602 534 b 567 589 594 577 582 589 b 547 590 563 589 556 589 b 83 571 112 596 92 579 b 70 530 72 562 69 544 b 86 498 71 515 77 504 z m 587 387 b 567 396 581 393 575 396 b 547 396 563 396 556 396 b 83 378 112 402 92 386 b 70 336 72 369 69 350 b 86 305 71 322 77 310 b 267 297 90 302 99 297 b 333 297 287 297 308 297 b 492 300 389 298 447 299 b 574 304 567 301 571 303 b 597 363 595 312 602 340 b 587 387 596 373 592 381 z "},">":{"ha":583,"x_min":0,"x_max":0,"o":"m 513 519 b 486 549 512 524 509 530 b 485 549 486 549 486 549 b 484 550 485 549 485 550 b 481 553 483 551 482 552 b 480 553 481 553 480 553 b 480 554 480 553 480 554 b 347 640 457 571 417 598 b 139 762 266 690 177 740 b 128 768 135 764 131 766 b 122 771 126 769 123 770 b 88 763 118 774 103 780 b 77 684 73 746 61 705 b 268 563 86 673 266 564 b 383 495 318 532 355 510 b 135 254 334 451 257 378 b 125 244 131 250 127 247 b 118 237 122 241 120 239 b 122 178 103 223 109 197 b 158 152 132 161 145 152 b 167 154 161 152 164 153 b 228 209 171 156 174 157 b 341 320 259 238 300 279 b 479 459 405 383 451 429 b 504 486 487 465 497 476 b 511 495 508 490 510 494 b 513 503 512 498 513 500 b 513 519 515 509 515 514 z "},"?":{"ha":597,"x_min":0,"x_max":0,"o":"m 499 888 b 397 984 473 936 440 967 b 250 993 357 1001 308 1004 b 70 785 130 971 78 871 b 116 700 66 744 84 710 b 209 754 142 692 180 702 b 319 828 236 801 280 831 b 370 786 343 826 360 812 b 315 621 394 721 361 679 b 192 294 258 551 188 462 b 250 204 194 229 229 210 b 272 202 257 202 264 202 b 357 242 307 202 345 221 b 359 252 359 245 360 249 b 442 543 338 353 391 449 b 499 888 502 654 565 769 z m 289 145 b 235 124 267 145 249 138 b 212 64 220 109 212 88 b 292 -14 212 -1 255 -14 b 348 11 314 -14 334 -5 b 367 69 360 26 367 47 b 289 145 367 115 336 145 z "},"@":{"ha":863,"x_min":0,"x_max":0,"o":"m 792 555 b 705 822 789 631 771 739 b 429 936 641 902 548 941 b 151 774 311 931 215 875 b 69 468 99 693 69 581 b 197 115 69 340 118 205 b 438 0 264 40 347 0 b 447 0 441 0 444 0 b 463 20 456 0 464 9 b 447 38 463 30 456 39 b 220 142 361 36 282 72 b 102 468 147 226 102 350 b 430 898 102 675 204 888 b 760 553 712 909 754 660 b 656 170 767 400 744 207 b 566 177 614 153 584 164 b 523 257 542 194 526 224 b 519 394 519 285 519 337 b 520 402 519 397 520 399 b 519 408 520 404 520 406 b 521 545 520 456 521 505 b 522 561 522 550 522 556 b 522 573 523 565 523 569 b 523 627 522 596 523 614 b 506 646 523 637 515 646 b 490 627 497 646 490 637 b 490 618 490 624 490 621 b 389 643 464 642 430 651 b 267 434 353 637 267 604 b 323 275 267 396 279 321 b 405 239 346 251 373 239 b 422 240 410 239 416 239 b 488 286 448 243 471 259 b 490 252 488 273 489 262 b 549 145 495 208 517 168 b 667 134 583 120 625 117 b 792 555 772 178 801 380 z m 418 317 b 402 352 416 317 408 326 b 447 547 389 411 398 509 b 454 532 449 545 451 540 b 461 470 458 517 461 495 b 418 317 461 389 437 317 z m 450 294 b 484 378 466 312 477 344 b 450 294 478 340 466 311 z "},"A":{"ha":1033,"x_min":0,"x_max":0,"o":"m 906 826 b 849 817 885 833 865 829 b 769 754 821 793 795 773 b 635 1031 735 869 689 983 b 495 1086 593 1068 544 1087 b 382 1037 453 1085 414 1068 b 184 573 310 965 235 745 b 71 89 126 376 81 172 b 180 -65 60 0 118 -52 b 213 -69 191 -68 202 -69 b 370 40 272 -69 336 -37 b 411 259 377 57 390 131 b 440 436 419 314 429 376 b 446 472 442 448 444 460 b 608 538 466 479 525 501 b 636 37 638 398 653 210 b 727 -54 632 -5 669 -43 b 869 8 779 -64 844 -49 b 829 507 895 69 868 310 b 802 633 823 540 814 584 b 936 707 845 655 889 680 b 964 761 957 720 967 739 b 906 826 960 789 935 817 z m 470 595 b 482 652 474 616 478 635 b 516 755 500 725 511 748 b 581 641 539 741 561 700 b 470 595 543 623 506 609 z "},"B":{"ha":810,"x_min":0,"x_max":0,"o":"m 641 398 b 347 431 558 452 439 451 b 349 436 348 433 348 435 b 636 695 472 501 574 592 b 686 966 695 792 713 891 b 605 1062 672 1008 644 1040 b 447 1093 563 1085 510 1096 b 447 1093 447 1093 447 1093 b 447 1093 447 1093 447 1093 b 178 916 336 1087 243 1026 b 69 388 106 795 69 617 b 69 388 69 388 69 388 b 69 387 69 388 69 387 b 93 186 72 348 81 242 b 254 -27 112 97 171 19 b 435 -72 308 -57 370 -72 b 529 -62 465 -72 497 -69 b 712 61 616 -43 678 -2 b 740 180 738 111 740 161 l 740 181 b 641 398 743 281 709 354 z m 520 958 b 555 958 532 963 543 963 b 594 893 579 944 592 923 b 354 545 600 801 501 657 b 520 958 374 697 443 922 z m 333 353 b 487 279 411 373 463 315 b 539 129 515 237 535 181 b 513 22 544 78 534 38 b 429 34 494 7 466 11 b 333 353 346 84 324 243 z "},"C":{"ha":946,"x_min":0,"x_max":0,"o":"m 761 1052 b 754 1054 759 1053 757 1054 b 545 1093 698 1088 624 1102 b 297 997 460 1084 375 1051 b 75 595 175 913 97 770 b 157 142 56 438 86 268 b 490 -63 236 0 356 -73 b 543 -55 507 -62 525 -59 b 740 59 609 -40 679 1 b 870 251 799 116 845 184 b 845 320 880 281 869 313 b 793 288 837 322 812 327 b 793 288 793 288 793 288 b 793 287 793 287 793 287 b 793 287 793 287 793 287 b 793 287 793 287 793 287 b 529 39 773 236 693 68 b 458 91 498 33 473 64 b 391 506 409 175 382 342 b 534 904 401 693 453 838 b 633 925 564 929 599 936 b 710 864 662 916 689 894 b 754 739 734 830 749 787 b 816 673 760 689 791 673 b 876 742 843 674 873 696 b 876 745 877 743 876 744 b 761 1052 877 896 840 994 z "},"D":{"ha":1465,"x_min":0,"x_max":0,"o":"m 1377 485 b 1369 486 1375 486 1372 487 l 1369 486 b 1366 487 1368 486 1367 487 b 1214 489 1313 489 1263 490 b 1118 745 1202 581 1168 671 b 955 891 1073 810 1017 860 b 740 919 887 925 815 934 b 357 324 501 872 398 532 b 433 919 350 496 362 708 b 369 980 440 942 406 966 b 154 919 302 1005 206 1003 b 69 496 98 828 69 682 b 147 -87 70 318 97 117 b 232 -176 165 -160 203 -176 b 233 -176 232 -176 233 -176 b 342 -117 274 -175 315 -143 b 398 -43 370 -90 394 -58 b 398 -42 398 -43 398 -43 b 398 -42 398 -42 398 -42 b 398 -37 398 -41 398 -39 b 676 818 424 437 556 734 b 756 842 704 838 731 846 b 880 721 798 835 843 791 b 948 463 918 650 944 556 b 464 153 651 409 502 276 b 465 27 450 109 450 65 b 548 -59 480 -11 509 -41 b 725 -94 597 -82 660 -94 b 795 -90 749 -94 772 -93 b 1082 56 873 -79 986 -45 b 1220 404 1170 148 1218 269 b 1220 413 1220 407 1220 410 b 1364 422 1271 417 1319 420 b 1396 446 1380 423 1392 432 b 1377 485 1399 460 1393 478 z m 549 87 b 541 117 540 92 531 99 b 945 374 624 262 779 335 b 893 221 938 318 922 265 b 714 98 847 149 762 113 b 549 87 648 77 580 73 z "},"E":{"ha":888,"x_min":0,"x_max":0,"o":"m 710 1042 b 514 1093 655 1077 581 1096 b 347 1045 447 1090 389 1074 b 272 917 299 1014 274 970 b 338 777 270 871 294 821 b 375 746 350 766 362 755 b 433 710 392 729 411 717 b 137 515 362 684 214 624 b 70 306 98 458 74 384 b 125 83 66 224 85 144 b 268 -37 159 29 208 -11 b 444 -69 319 -58 378 -69 b 512 -65 466 -69 488 -68 b 700 11 585 -58 648 -32 b 796 156 745 49 778 99 b 716 449 830 269 798 386 b 503 503 651 497 584 515 b 464 495 491 501 478 498 b 582 520 500 508 539 517 b 643 554 621 524 637 540 b 612 652 654 579 643 615 b 474 729 578 694 521 735 b 469 729 473 729 471 729 b 393 766 451 732 422 745 b 372 790 385 774 378 782 b 335 935 336 842 326 910 b 500 1008 365 1018 451 1017 b 536 903 532 1003 535 961 b 543 835 537 877 537 853 b 676 807 552 808 597 798 b 765 824 706 811 738 817 b 816 854 806 835 815 844 b 814 862 816 857 815 859 b 818 871 816 864 818 868 b 710 1042 814 940 776 1001 z m 431 415 b 597 426 496 434 559 438 b 707 332 648 409 686 377 b 705 158 731 279 731 214 b 541 24 673 88 618 43 b 389 20 469 6 403 17 b 388 20 389 20 389 20 b 388 20 388 20 388 20 b 239 213 288 40 232 112 b 271 325 241 250 252 289 b 431 415 305 362 363 394 z "},"F":{"ha":878,"x_min":0,"x_max":0,"o":"m 763 1058 b 336 1060 725 1080 564 1075 b 274 1056 307 1058 284 1057 b 132 1098 251 1091 187 1102 b 61 1080 107 1095 81 1090 b 26 1037 41 1070 27 1056 b 9 489 22 988 12 743 b 35 -33 3 9 27 -23 b 121 -69 56 -60 87 -69 b 239 -46 162 -69 207 -56 b 275 -37 254 -42 270 -37 b 288 -31 280 -37 285 -35 b 302 151 292 -26 300 -16 b 302 443 304 243 303 352 b 433 440 326 442 379 441 b 492 439 455 440 475 439 b 603 447 588 439 597 444 b 621 507 610 451 621 462 b 583 642 621 543 612 625 b 375 646 559 655 485 652 b 298 642 346 644 319 643 b 294 806 297 699 295 754 b 472 802 324 804 395 802 b 499 802 481 802 490 802 b 767 840 708 804 752 824 b 806 984 798 872 814 931 b 763 1058 801 1018 785 1045 z "},"G":{"ha":1042,"x_min":0,"x_max":0,"o":"m 970 105 b 963 325 968 222 967 307 b 826 359 954 358 859 361 b 745 323 775 356 747 344 b 745 294 744 311 744 303 b 482 60 744 238 723 60 b 482 60 482 60 482 60 b 402 148 439 60 413 115 b 395 558 368 248 365 408 b 589 911 430 728 500 857 b 717 928 635 939 680 945 b 800 727 771 902 800 831 b 852 668 800 690 826 671 b 926 715 881 664 915 679 b 926 715 926 715 926 715 b 927 717 927 716 927 717 b 926 891 933 770 939 832 b 823 1044 911 956 878 1006 b 822 1045 823 1044 822 1045 b 822 1045 822 1045 822 1045 b 610 1098 757 1084 686 1102 b 366 1015 529 1095 447 1067 b 103 665 243 937 150 813 b 100 255 59 529 58 379 b 482 -35 161 76 300 -30 b 686 39 555 -36 628 -10 b 744 107 709 60 729 83 b 741 -23 741 62 739 8 b 771 -57 742 -33 748 -47 b 847 -69 790 -65 818 -69 b 959 -47 891 -69 939 -60 b 972 -25 971 -39 973 -31 b 970 105 971 -13 970 45 z "},"H":{"ha":997,"x_min":0,"x_max":0,"o":"m 920 749 b 913 827 918 776 915 802 b 847 1082 903 959 896 1046 b 771 1096 827 1096 802 1101 b 606 1011 738 1091 636 1064 b 606 948 595 991 595 969 b 633 547 622 910 632 757 b 399 543 531 547 455 545 b 391 729 399 604 397 667 b 385 807 389 756 387 782 b 318 1062 374 939 367 1026 b 242 1076 298 1076 273 1080 b 78 990 209 1070 107 1043 b 78 928 67 971 67 949 b 105 503 94 888 104 726 b 87 60 105 305 97 114 b 87 59 87 60 87 59 b 87 59 87 59 87 59 b 87 59 87 59 87 59 b 161 -80 76 -17 104 -69 b 183 -82 168 -81 176 -82 b 269 -54 211 -82 242 -72 b 347 46 306 -31 334 5 b 396 435 357 78 387 238 b 452 435 415 435 434 435 b 522 436 477 435 502 436 b 633 438 560 436 597 437 b 616 80 631 273 625 127 b 616 79 616 80 616 80 b 616 79 616 79 616 79 b 616 79 616 79 616 79 b 690 -60 605 3 633 -49 b 712 -62 697 -61 704 -62 b 798 -34 740 -62 770 -52 b 875 66 835 -10 862 25 b 920 749 890 113 949 439 z "},"I":{"ha":468,"x_min":0,"x_max":0,"o":"m 385 820 b 318 1075 374 952 367 1039 b 242 1089 298 1089 273 1094 b 78 1004 209 1084 107 1057 b 78 941 67 984 67 962 b 105 516 94 902 104 739 b 87 73 105 318 97 128 b 87 73 87 73 87 73 b 87 72 87 72 87 72 b 87 72 87 72 87 72 b 161 -67 76 -4 104 -56 b 183 -69 168 -68 176 -69 b 269 -41 211 -69 242 -59 b 347 59 306 -17 334 18 b 391 742 361 106 420 432 b 385 820 389 769 387 795 z "},"J":{"ha":739,"x_min":0,"x_max":0,"o":"m 656 769 b 616 972 645 849 636 918 b 503 1089 593 1032 557 1069 b 385 1059 481 1097 426 1078 b 262 970 357 1046 290 1012 b 278 888 242 939 248 910 b 291 879 282 882 287 880 b 297 878 293 878 295 878 b 331 893 309 878 320 885 b 338 897 333 894 336 896 b 412 486 380 818 440 571 b 130 204 291 418 192 318 b 82 -91 72 97 55 -11 b 282 -217 110 -173 181 -217 b 288 -217 284 -217 286 -217 b 289 -217 289 -217 289 -217 b 289 -217 289 -217 289 -217 b 544 -35 391 -214 479 -151 b 669 532 615 94 657 285 b 669 533 669 532 669 532 b 658 751 669 576 666 690 z m 236 -116 b 206 -113 226 -120 216 -119 b 173 -39 185 -97 174 -73 b 420 350 170 66 273 227 b 354 83 408 267 383 166 b 236 -116 315 -29 273 -101 z "},"K":{"ha":1208,"x_min":0,"x_max":0,"o":"m 1024 1010 b 937 983 993 1022 961 1012 b 890 914 934 980 922 961 b 690 618 842 842 762 722 b 551 432 606 498 568 450 b 593 717 551 458 557 529 b 656 1013 620 858 651 998 b 615 1089 667 1052 638 1081 b 496 1088 612 1090 601 1094 b 378 1077 492 1087 397 1082 b 376 1077 378 1077 377 1077 b 376 1076 376 1076 376 1076 b 374 1076 375 1076 375 1076 b 373 1075 374 1075 374 1075 b 372 1074 373 1075 372 1074 b 371 1073 371 1074 371 1073 b 370 1072 371 1073 371 1073 b 370 1071 370 1072 370 1072 b 369 1071 370 1071 370 1071 b 369 1071 369 1071 369 1071 b 295 819 332 1010 307 926 b 297 504 285 727 286 618 b 300 466 298 491 299 479 b 120 453 271 473 179 491 b 69 348 86 431 69 396 b 150 213 69 317 86 248 b 233 193 174 199 202 193 b 346 216 267 193 304 200 b 432 -11 370 119 400 38 b 505 -69 456 -49 480 -67 b 512 -69 507 -69 510 -69 b 665 -2 591 -69 662 -5 b 668 10 669 1 670 6 b 577 256 638 90 596 202 b 748 195 612 236 672 207 b 815 190 771 191 793 190 b 1083 283 908 190 998 221 b 1083 309 1084 284 1096 294 b 1043 337 1074 319 1055 330 b 994 345 1013 351 1001 349 b 994 344 994 345 994 345 b 993 344 993 344 993 344 b 992 343 993 344 992 344 b 992 343 992 343 992 343 b 990 342 991 343 991 342 b 990 341 990 342 990 341 b 793 268 939 275 854 265 b 651 297 731 271 678 287 b 594 323 623 307 605 317 b 898 626 619 329 686 369 b 1063 835 972 716 1033 795 b 1139 941 1137 932 1138 938 b 1024 1010 1141 957 1123 972 z m 228 292 b 192 348 203 308 192 332 b 207 380 192 362 197 373 b 311 389 234 399 291 393 b 311 389 311 389 311 389 b 331 278 317 351 324 313 b 228 292 280 268 247 280 z "},"L":{"ha":660,"x_min":0,"x_max":0,"o":"m 381 1098 b 381 1098 381 1098 381 1098 b 381 1098 381 1098 381 1098 b 158 921 317 1094 225 1060 b 69 394 99 800 69 622 b 69 394 69 394 69 394 b 70 393 69 393 69 393 b 89 193 71 353 79 248 b 178 5 103 113 133 48 b 324 -56 218 -35 269 -56 b 346 -55 331 -56 338 -56 b 500 192 463 -44 489 122 b 504 217 502 204 503 213 b 499 245 508 230 506 239 b 474 249 492 250 483 251 b 445 222 462 246 448 235 b 444 217 445 221 444 219 b 362 42 403 47 367 42 b 334 95 361 43 349 48 b 308 218 324 127 315 169 b 304 444 295 311 293 405 b 547 718 411 511 497 609 b 572 995 594 821 603 922 b 381 1098 541 1067 473 1103 z m 447 966 b 468 964 454 969 461 968 b 499 901 486 951 497 930 b 309 555 505 810 427 668 b 355 789 316 628 334 716 b 447 966 384 889 417 953 z "},"M":{"ha":1417,"x_min":0,"x_max":0,"o":"m 1286 963 b 1174 1070 1265 1014 1232 1045 b 1007 1059 1139 1085 1052 1094 b 845 794 959 1027 901 909 b 769 647 818 739 792 687 b 721 585 739 595 725 586 b 699 624 718 587 711 595 b 664 711 688 647 677 678 b 513 952 612 850 570 950 b 409 883 483 953 440 942 b 391 840 402 869 396 855 b 314 1074 377 962 363 1044 b 241 1083 294 1086 270 1089 b 79 989 209 1076 111 1045 b 79 917 66 966 66 942 b 130 146 122 817 147 272 b 130 146 130 146 130 146 b 130 146 130 146 130 146 b 130 146 130 146 130 146 b 154 28 125 97 133 57 b 236 -21 173 1 202 -17 b 253 -22 242 -22 247 -22 b 341 6 283 -22 314 -12 b 408 105 374 29 398 64 b 427 464 418 144 435 267 b 427 465 427 464 427 465 b 427 481 427 468 427 474 b 483 727 426 531 425 682 b 526 740 495 737 509 741 b 572 676 530 739 548 733 b 610 558 588 638 601 592 b 618 529 613 546 616 536 b 693 434 624 511 645 452 b 719 430 702 431 710 430 b 761 440 733 430 747 433 b 930 679 804 461 861 542 b 1017 868 966 750 998 822 b 1048 504 1030 796 1041 666 b 1047 68 1056 310 1056 122 b 1047 67 1047 68 1047 67 b 1047 67 1047 67 1047 67 b 1047 67 1047 67 1047 67 b 1129 -67 1039 -8 1070 -58 b 1146 -68 1135 -67 1140 -68 b 1238 -37 1176 -68 1209 -57 b 1312 63 1274 -13 1300 23 b 1330 736 1325 109 1372 432 b 1286 963 1316 838 1306 912 z "},"N":{"ha":1204,"x_min":0,"x_max":0,"o":"m 997 1082 b 839 1079 965 1098 885 1111 b 826 939 802 1052 798 1005 b 826 938 826 938 826 938 b 848 514 842 899 850 737 b 845 368 848 464 847 415 b 701 680 813 457 764 570 b 394 1015 633 797 524 951 b 211 1039 333 1045 271 1054 b 211 1039 211 1039 211 1039 b 77 995 152 1029 88 1000 b 77 995 77 995 77 995 b 75 994 76 995 75 995 b 74 994 74 994 74 994 b 72 992 73 993 73 993 b 72 991 72 992 72 991 b 71 990 71 991 71 990 b 70 989 71 990 70 989 b 70 988 70 988 70 988 b 70 987 70 988 70 987 b 70 987 70 987 70 987 b 70 986 70 986 70 986 b 69 985 69 986 69 985 b 69 985 69 985 69 985 b 70 984 69 984 69 984 b 70 983 70 984 70 983 b 134 166 72 967 155 281 b 134 166 134 166 134 166 b 134 166 134 166 134 166 b 133 165 133 165 133 165 b 152 54 127 120 133 83 b 227 6 168 28 195 11 b 248 4 234 5 241 4 b 328 27 276 4 304 12 b 397 118 362 48 385 80 b 423 679 413 167 446 362 b 420 713 422 691 421 702 b 596 511 473 692 532 625 b 761 152 658 399 715 262 b 832 -11 789 83 812 27 b 832 -11 832 -11 832 -11 b 838 -25 834 -16 836 -21 b 845 -35 840 -29 842 -32 b 845 -36 845 -35 845 -35 b 900 -67 859 -53 877 -63 b 918 -69 906 -68 912 -69 b 1078 58 979 -69 1053 -22 b 1129 739 1093 105 1154 429 b 997 1082 1112 955 1106 1028 z "},"O":{"ha":971,"x_min":0,"x_max":0,"o":"m 803 927 l 803 927 b 627 1071 767 996 706 1046 b 446 1085 570 1090 503 1095 b 224 972 406 1082 308 1055 b 108 782 173 921 134 858 b 72 460 76 691 64 583 b 72 454 72 458 72 456 b 104 257 74 424 78 344 b 268 9 137 147 192 64 b 524 -66 337 -41 423 -66 b 601 -62 549 -66 575 -65 b 795 76 676 -53 743 -6 b 900 476 858 175 897 321 b 803 926 904 641 870 800 b 803 927 803 926 803 926 z m 393 356 b 452 766 393 522 413 664 b 586 909 487 858 535 909 b 589 910 587 909 588 909 b 720 692 639 917 690 831 b 730 274 748 560 752 399 b 577 31 706 130 652 44 b 496 48 547 26 520 31 b 393 356 425 99 393 239 z "},"P":{"ha":985,"x_min":0,"x_max":0,"o":"m 647 966 b 369 764 520 939 428 871 b 449 965 389 831 416 898 b 357 1074 463 993 409 1050 b 194 1038 293 1104 234 1091 b 69 549 117 936 69 749 b 240 -29 70 323 131 118 b 318 -69 260 -55 287 -69 b 385 -49 339 -69 362 -62 b 448 39 423 -28 465 16 b 359 232 432 61 389 125 b 361 327 359 265 360 297 b 545 299 427 308 489 299 b 634 307 577 299 606 302 b 820 409 710 322 772 357 b 915 654 878 472 912 559 b 851 888 919 743 896 828 b 647 966 801 956 728 983 z m 579 468 b 367 410 514 406 443 386 b 658 882 405 781 561 866 b 699 864 676 885 689 879 b 699 684 721 831 721 762 b 579 468 676 598 632 520 z "},"Q":{"ha":1013,"x_min":0,"x_max":0,"o":"m 910 158 b 887 138 897 158 888 150 b 887 134 887 138 887 136 b 840 -58 879 -8 854 -53 b 827 -42 839 -57 834 -54 b 786 92 810 -13 795 40 b 845 172 808 115 828 142 b 925 509 899 264 927 384 b 824 869 923 641 887 768 b 824 870 824 869 824 869 b 824 870 824 870 824 870 b 823 870 824 870 823 870 b 643 990 775 939 698 973 b 458 1007 581 1009 512 1015 b 458 1007 458 1007 458 1007 b 199 881 445 1006 310 993 b 72 462 102 783 59 642 b 72 457 72 461 72 459 b 101 299 74 431 78 370 b 244 90 130 210 178 140 b 537 4 320 32 418 4 b 617 7 563 4 589 5 b 630 9 621 8 626 8 b 719 -106 656 -38 686 -79 b 809 -145 749 -132 780 -145 b 829 -143 816 -145 823 -145 b 935 5 885 -131 920 -81 b 941 136 946 69 942 130 b 910 158 938 151 923 159 z m 593 92 b 495 115 556 87 523 94 b 402 372 431 164 402 279 b 402 372 402 372 402 372 b 402 373 402 372 402 372 b 402 373 402 373 402 373 b 488 805 380 641 436 756 b 602 851 519 836 557 851 b 603 851 602 851 602 851 b 604 851 603 851 603 851 b 604 851 604 851 604 851 b 752 602 666 858 726 758 b 745 275 771 489 768 367 b 615 291 709 291 652 300 b 587 276 602 287 593 282 b 577 258 581 270 578 264 b 595 92 567 215 573 155 b 593 92 594 92 593 92 z "},"R":{"ha":1035,"x_min":0,"x_max":0,"o":"m 845 158 b 547 234 722 156 615 198 b 448 297 504 256 470 280 b 555 287 485 290 521 287 b 689 307 603 287 648 293 b 854 422 757 328 812 367 b 933 665 905 488 933 574 b 863 890 933 752 908 834 b 658 965 812 956 739 982 b 375 760 530 937 435 869 b 456 963 395 828 423 896 b 366 1073 471 992 418 1047 b 197 1038 300 1105 238 1093 b 69 542 118 934 69 744 b 244 -46 70 312 132 103 b 319 -86 263 -71 289 -85 b 323 -86 320 -86 321 -86 b 395 -64 352 -86 378 -74 b 455 24 432 -43 473 0 b 365 219 439 46 396 111 b 365 237 365 225 365 231 b 594 65 421 171 501 111 b 823 -2 679 23 765 -2 b 839 -1 829 -2 834 -2 b 966 101 906 5 969 55 b 845 158 964 119 950 159 z m 712 680 b 593 464 689 595 646 516 b 373 401 547 417 472 370 b 670 879 412 777 570 863 b 712 860 689 882 702 876 b 712 680 733 827 733 758 z "},"S":{"ha":1015,"x_min":0,"x_max":0,"o":"m 937 453 b 723 487 893 486 815 499 b 530 424 648 478 576 454 b 529 425 530 425 530 425 b 420 835 393 545 371 722 b 549 936 448 897 494 934 b 634 911 588 938 617 929 b 647 766 671 873 654 798 b 645 755 646 762 645 758 l 645 755 b 644 754 645 755 645 754 b 644 748 644 751 644 749 b 645 742 644 746 644 744 b 645 742 645 742 645 742 b 672 721 648 732 658 725 b 694 719 679 720 686 719 b 727 723 708 719 721 721 b 768 744 751 727 765 734 b 758 939 800 825 796 891 b 478 1029 689 1025 530 1028 b 464 1030 471 1030 466 1030 b 463 1030 463 1030 463 1030 b 462 1030 463 1030 462 1030 b 216 964 420 1030 313 1024 b 70 720 126 908 76 824 b 355 304 58 492 183 413 b 362 299 358 303 360 301 b 265 113 306 232 274 169 b 305 -25 257 60 270 14 b 468 -104 341 -65 399 -93 b 532 -109 489 -108 511 -109 b 652 -89 575 -109 617 -103 b 652 -89 652 -89 652 -89 b 653 -89 652 -89 652 -89 b 761 23 713 -63 750 -26 b 677 260 775 85 747 165 b 590 364 648 299 617 335 b 920 420 694 452 864 428 l 921 420 b 944 427 935 418 941 424 b 939 451 950 437 942 447 b 937 453 938 452 938 453 z m 440 235 b 521 138 470 206 498 173 b 575 -14 565 73 586 15 b 541 -33 573 -22 566 -32 b 401 44 473 -26 423 1 b 440 235 374 96 389 165 z "},"T":{"ha":1347,"x_min":0,"x_max":0,"o":"m 1174 1090 b 1053 1081 1158 1090 1116 1086 b 436 1047 908 1069 657 1047 b 156 1065 331 1047 232 1052 b 72 989 118 1072 81 1030 b 151 889 63 949 79 901 b 438 878 195 881 307 878 b 494 878 457 878 475 878 b 526 477 510 834 522 684 b 518 52 530 291 527 100 b 518 51 518 52 518 52 b 518 51 518 51 518 51 b 518 51 518 51 518 51 b 594 -67 511 -13 539 -57 b 616 -69 601 -68 608 -69 b 702 -44 644 -69 675 -60 b 778 46 739 -22 766 10 b 797 634 791 87 837 368 b 766 815 776 768 775 771 b 752 882 763 830 758 850 b 1059 893 867 885 975 889 b 1222 912 1211 901 1217 907 b 1271 1051 1238 928 1296 1002 b 1174 1090 1258 1077 1225 1090 z "},"U":{"ha":817,"x_min":0,"x_max":0,"o":"m 738 930 b 738 930 738 930 738 930 b 671 1090 738 1008 714 1066 b 601 1091 648 1102 622 1103 b 556 1004 572 1076 556 1044 b 562 854 556 968 559 915 b 568 444 568 729 576 574 b 500 210 558 278 527 224 b 409 641 444 275 412 423 b 425 989 406 812 421 969 b 424 1001 427 993 427 997 b 424 1001 424 1001 424 1001 b 224 1075 401 1036 306 1077 b 87 1000 161 1073 114 1047 b 86 997 87 999 86 998 b 86 996 86 996 86 996 b 86 996 86 996 86 996 b 86 995 86 995 86 995 b 101 375 60 783 65 563 b 267 -7 136 196 195 61 b 372 -54 301 -39 336 -54 b 384 -54 376 -54 380 -54 b 720 350 559 -38 672 98 b 740 878 759 550 746 771 b 738 930 739 901 738 920 z "},"V":{"ha":946,"x_min":0,"x_max":0,"o":"m 793 1090 b 673 1026 740 1090 677 1062 b 524 194 617 437 572 319 b 516 174 521 187 519 181 b 417 517 469 229 435 347 b 405 814 401 666 404 801 b 404 821 405 816 405 819 b 315 880 393 851 333 874 b 172 899 266 897 214 904 b 70 796 107 890 71 854 b 70 795 70 796 70 795 b 172 254 62 566 121 375 b 378 -48 231 114 310 -2 b 433 -69 398 -62 417 -69 b 447 -67 438 -69 442 -68 b 618 -16 571 -35 608 -20 b 718 127 633 -12 671 9 b 877 1027 785 299 840 610 b 877 1029 877 1028 877 1028 b 793 1090 873 1068 841 1091 z "},"W":{"ha":1275,"x_min":0,"x_max":0,"o":"m 1205 1041 b 1205 1042 1205 1042 1205 1042 b 1205 1043 1205 1042 1205 1042 b 1205 1043 1205 1043 1205 1043 b 1205 1044 1205 1043 1205 1043 b 1204 1044 1204 1044 1204 1044 b 1203 1046 1204 1045 1203 1046 b 1203 1046 1203 1046 1203 1046 b 1202 1047 1203 1046 1202 1047 b 1075 1096 1148 1108 1095 1102 b 1020 1037 1044 1088 1022 1064 b 893 195 975 442 935 322 b 888 179 892 190 890 184 b 797 525 846 236 815 355 b 783 826 782 676 783 813 b 782 833 783 828 783 830 b 772 850 781 838 777 844 b 769 853 771 851 770 852 b 610 914 740 882 672 910 b 608 914 609 914 609 914 b 605 914 607 914 606 914 b 574 913 594 914 584 914 b 480 809 513 905 480 869 b 480 809 480 809 480 809 b 524 428 477 684 492 554 b 477 249 509 360 494 303 b 387 595 436 307 405 426 b 373 896 372 746 372 883 b 372 903 373 898 373 900 b 164 983 359 944 247 993 b 70 879 103 976 70 939 b 70 879 70 879 70 879 b 170 319 66 694 101 495 b 364 17 227 175 303 57 b 406 2 379 7 393 2 b 418 3 410 2 414 2 b 572 54 528 34 562 50 b 640 119 582 57 609 69 b 774 -54 684 37 733 -27 b 816 -69 789 -64 803 -69 b 829 -67 820 -69 825 -68 b 982 -16 939 -36 973 -21 b 1071 128 996 -12 1031 11 b 1206 1038 1130 301 1177 616 b 1206 1039 1206 1038 1206 1038 b 1205 1041 1206 1039 1206 1040 b 1205 1041 1205 1041 1205 1041 z "},"X":{"ha":1175,"x_min":0,"x_max":0,"o":"m 1073 743 b 1073 744 1073 743 1073 743 b 1074 744 1074 744 1074 744 b 1075 744 1074 744 1075 744 b 1076 745 1075 745 1075 745 b 1076 746 1076 745 1076 745 b 1082 872 1117 784 1111 841 b 987 884 1057 899 1021 903 b 946 861 976 877 962 870 b 743 742 894 832 823 794 b 675 977 719 813 697 891 b 671 992 673 984 672 989 b 670 997 671 994 670 995 b 634 1035 670 1009 658 1021 b 393 1081 579 1067 445 1109 b 371 1040 382 1075 368 1063 b 371 1039 371 1040 371 1039 b 371 1039 371 1039 371 1039 b 499 564 394 874 438 713 b 75 22 308 402 165 220 b 81 -41 63 6 74 -26 b 114 -69 91 -59 102 -68 b 115 -69 115 -69 115 -69 b 138 -54 121 -69 131 -67 b 548 454 276 188 417 346 b 666 251 583 382 623 314 b 1035 -52 792 66 936 -52 b 1035 -52 1035 -52 1035 -52 b 1035 -52 1035 -52 1035 -52 b 1036 -52 1035 -52 1035 -52 b 1093 -19 1059 -52 1081 -40 b 1017 208 1110 10 1123 78 b 1017 208 1017 208 1017 208 b 1016 208 1017 208 1016 208 b 790 612 952 284 869 409 b 945 683 846 641 898 663 b 1073 743 995 704 1038 722 z "},"Y":{"ha":1199,"x_min":0,"x_max":0,"o":"m 1090 733 b 1090 733 1090 733 1090 733 b 1090 733 1090 733 1090 733 b 1089 733 1090 733 1089 733 b 845 678 1002 724 921 704 b 738 1046 844 857 808 981 b 593 1099 699 1081 651 1099 b 473 970 535 1099 474 971 b 474 947 469 961 466 953 b 535 843 495 931 516 893 b 348 609 463 704 388 610 b 335 619 346 609 341 608 b 334 793 320 645 320 714 b 393 955 348 868 372 935 b 397 982 400 963 402 972 b 211 1061 381 1017 280 1055 b 123 1036 157 1065 133 1050 b 70 831 86 986 67 914 b 132 616 72 752 95 674 b 291 520 174 553 229 520 b 293 520 292 520 292 520 b 508 656 374 520 449 568 b 561 756 532 692 549 729 b 573 555 580 671 585 592 b 307 307 459 493 364 406 b 264 49 253 214 238 120 b 339 -40 278 10 303 -19 b 465 -69 374 -59 416 -69 b 483 -68 471 -69 477 -69 b 485 -68 484 -68 484 -68 b 695 29 552 -68 630 -56 b 836 494 761 114 807 267 b 836 494 836 494 836 494 b 836 495 836 494 836 494 b 843 593 839 529 842 561 b 1092 656 941 628 1033 652 b 1125 674 1108 657 1119 663 b 1116 721 1133 689 1127 709 b 1090 733 1109 730 1100 734 z m 402 63 b 367 129 381 77 369 99 b 422 291 364 174 384 231 b 568 450 458 347 508 402 b 509 211 558 373 536 282 b 402 63 475 123 436 69 z "},"Z":{"ha":1113,"x_min":0,"x_max":0,"o":"m 1040 456 b 1011 464 1033 465 1012 464 b 995 456 1001 464 997 460 b 850 371 963 402 917 375 b 840 371 847 371 843 371 b 829 467 840 407 836 440 b 557 701 792 595 637 668 b 619 727 579 705 600 714 b 656 748 632 733 644 741 b 756 879 690 770 747 817 b 700 1013 763 930 744 976 b 533 1081 661 1046 603 1069 b 285 1041 449 1095 354 1079 b 177 906 227 1008 190 962 b 177 905 177 905 177 905 b 177 904 177 905 177 905 b 177 903 177 904 177 903 b 197 881 176 895 185 888 b 238 861 208 875 222 868 b 352 824 275 845 317 831 b 457 835 410 810 445 814 b 469 897 466 852 468 874 b 536 999 472 944 475 987 b 636 986 573 1007 607 1002 b 695 905 667 969 688 940 b 626 764 700 879 676 811 b 604 747 619 758 611 752 b 517 720 569 729 536 721 b 512 721 515 720 513 721 b 359 669 466 732 403 703 b 305 573 317 635 297 600 b 363 534 310 560 323 542 b 574 415 460 515 529 470 b 202 406 453 440 322 458 b 99 307 160 389 124 353 b 72 157 75 260 65 206 b 138 29 78 108 101 64 b 314 -55 180 -12 239 -40 b 440 -69 358 -64 401 -69 b 535 -59 474 -69 505 -66 b 689 14 593 -47 645 -22 b 825 249 772 84 809 180 b 837 320 831 272 835 296 b 847 321 841 320 844 321 b 1041 443 878 321 967 323 b 1040 456 1043 447 1043 452 z m 639 199 b 449 6 629 113 574 12 b 449 6 449 6 449 6 b 448 6 449 6 449 6 b 213 71 382 2 280 20 b 148 195 170 104 148 146 b 218 340 148 256 172 306 b 415 384 267 376 339 392 b 416 384 415 384 416 384 b 417 384 416 384 416 384 b 417 384 417 384 417 384 b 417 384 417 384 417 384 b 583 357 442 385 511 371 b 614 351 593 355 604 353 b 639 199 636 301 644 248 z "},"[":{"ha":372,"x_min":0,"x_max":0,"o":"m 303 87 b 273 103 301 99 291 100 b 232 107 263 104 249 106 b 187 112 218 109 199 111 b 194 843 190 250 196 702 b 225 846 206 844 222 845 b 256 848 238 847 249 848 b 283 862 270 850 280 851 b 283 900 284 867 283 894 b 276 944 282 935 280 940 b 264 950 273 948 268 950 b 92 950 258 949 101 949 b 89 950 91 950 90 950 b 88 950 89 950 89 950 b 74 936 80 950 74 944 b 73 896 74 929 74 915 b 91 -9 62 133 78 14 b 101 -16 93 -13 97 -15 b 103 -16 101 -16 102 -16 b 104 -16 103 -16 104 -16 b 284 -16 113 -16 278 -16 b 285 -16 284 -16 284 -16 b 296 -11 289 -16 293 -15 b 303 42 299 -7 302 -4 b 303 87 304 55 304 82 z "},"\\":{"ha":589,"x_min":0,"x_max":0,"o":"m 468 191 b 355 486 432 288 387 405 b 179 921 302 622 189 906 b 99 935 159 948 124 949 b 69 891 80 925 69 909 b 73 874 69 885 70 880 b 87 837 75 867 80 855 b 433 1 355 122 413 18 b 463 -9 441 -5 452 -9 b 491 -3 472 -9 482 -7 b 519 37 508 6 519 20 b 468 191 519 43 520 52 z "},"]":{"ha":363,"x_min":0,"x_max":0,"o":"m 289 890 b 288 930 289 909 289 923 b 274 944 288 938 282 944 b 274 944 274 944 274 944 b 273 944 274 944 273 944 b 271 944 272 944 272 944 b 108 944 262 943 113 944 b 96 939 103 944 99 942 b 89 894 92 934 90 929 b 89 857 89 886 88 861 b 115 843 91 846 102 844 b 144 840 122 842 132 841 b 173 838 144 840 161 838 b 180 106 171 697 177 244 b 138 102 168 105 150 103 b 99 97 122 100 109 98 b 70 81 82 94 72 93 b 70 36 69 77 69 51 b 77 -17 71 -10 73 -13 b 88 -22 80 -20 84 -22 b 89 -22 88 -22 88 -22 b 258 -22 95 -22 244 -21 b 259 -22 259 -22 259 -22 b 260 -22 259 -22 260 -22 b 261 -22 261 -22 261 -22 b 262 -22 262 -22 262 -22 b 264 -21 263 -22 263 -22 b 265 -21 265 -21 265 -21 b 267 -20 266 -21 266 -21 b 268 -20 267 -20 267 -20 b 269 -19 268 -19 268 -19 b 270 -18 269 -19 270 -18 b 271 -17 270 -18 270 -18 b 271 -16 271 -17 271 -17 b 272 -15 272 -16 272 -16 b 273 -14 272 -15 273 -14 b 289 890 285 10 300 133 z "},"^":{"ha":358,"x_min":0,"x_max":0,"o":"m 288 826 b 235 887 287 829 286 832 b 191 933 213 911 199 925 b 183 941 189 936 186 939 b 183 941 183 941 183 941 b 177 946 179 945 178 945 b 173 947 176 946 174 947 b 172 947 173 947 173 947 b 162 947 168 948 165 948 b 75 826 155 945 146 942 b 72 820 74 823 73 821 b 76 797 68 814 68 805 b 100 788 81 793 90 788 b 113 792 104 788 109 789 b 157 855 115 793 118 796 b 173 880 163 864 168 873 b 239 807 187 863 208 840 b 244 802 242 804 244 803 b 259 796 248 798 253 796 b 276 800 264 796 270 797 b 288 826 286 807 291 817 z "},"`":{"ha":292,"x_min":0,"x_max":0,"o":"m 221 884 b 216 899 221 886 218 892 b 149 1024 176 1002 163 1021 b 86 1008 131 1028 102 1020 b 69 980 73 998 70 987 b 116 908 69 974 69 969 b 167 846 160 850 165 848 b 176 845 170 845 173 845 b 215 862 191 845 210 858 b 223 878 221 868 223 873 b 221 884 223 880 222 883 z "},"a":{"ha":708,"x_min":0,"x_max":0,"o":"m 772 318 b 736 303 757 323 742 316 b 734 299 736 302 735 301 b 583 76 664 136 610 77 b 575 83 581 75 578 78 b 573 267 561 110 560 182 b 626 440 585 347 607 419 b 629 471 633 449 634 460 b 454 554 613 506 521 550 b 379 527 408 557 388 541 b 355 480 370 513 362 497 b 180 540 314 533 257 552 b 71 483 151 535 108 522 b 1 260 25 434 1 359 b 92 40 1 210 20 99 b 203 0 123 13 161 0 b 228 1 211 0 220 1 b 359 146 291 9 338 61 b 394 71 368 118 380 93 b 532 -21 430 10 478 -21 b 534 -21 533 -21 533 -21 b 732 128 608 -20 677 31 b 797 285 775 202 795 277 b 772 318 799 300 789 314 z m 224 84 b 192 131 215 84 201 98 b 188 296 178 177 176 241 b 268 432 200 360 229 408 b 300 311 284 427 300 385 b 224 84 300 194 263 84 z "},"b":{"ha":786,"x_min":0,"x_max":0,"o":"m 687 480 b 562 533 645 519 595 533 b 403 467 497 533 444 512 b 321 964 400 681 373 848 b 114 1145 259 1106 174 1141 b 114 1145 114 1145 114 1145 b 114 1145 114 1145 114 1145 b -66 1030 25 1151 -39 1110 b -38 750 -92 955 -82 853 b 185 476 9 641 88 544 b 181 248 194 437 193 343 b 132 71 165 122 141 74 b 57 247 127 71 95 76 b 56 253 57 250 56 252 b 28 281 53 267 40 278 b 4 276 19 284 10 282 b -1 246 -1 272 -5 263 b 3 220 0 242 1 232 b 148 -32 13 145 37 -32 b 308 56 221 -32 275 16 b 368 159 333 86 354 123 b 512 0 390 65 442 7 b 539 -2 521 -1 530 -2 b 681 51 595 -2 643 16 b 767 256 749 113 767 209 b 687 480 767 355 740 431 z m 6 942 b 34 1006 8 971 17 993 b 35 1006 35 1006 35 1006 b 61 1009 44 1013 52 1014 b 145 843 90 995 121 933 b 182 592 166 765 179 674 b 6 942 73 706 1 849 z m 561 149 b 516 82 552 108 534 82 b 426 306 464 82 426 200 b 439 396 426 342 431 374 b 467 426 446 414 456 425 b 561 149 565 374 581 233 z "},"c":{"ha":489,"x_min":0,"x_max":0,"o":"m 527 351 b 500 334 514 352 503 345 b 500 334 500 334 500 334 b 500 333 500 334 500 333 b 315 37 484 205 400 48 b 261 52 295 35 277 39 b 205 186 221 82 203 150 b 205 186 205 186 205 186 b 205 187 205 186 205 187 b 205 188 205 187 205 187 b 205 188 205 188 205 188 b 252 386 197 245 203 344 b 320 404 270 401 292 407 b 360 373 351 399 356 386 b 385 351 363 365 368 351 b 388 351 386 351 387 351 b 415 366 399 352 408 357 b 423 442 431 386 429 426 b 423 443 423 443 423 443 b 233 541 395 532 287 546 b 233 541 233 541 233 541 b 67 466 223 540 136 532 b -9 236 9 411 -16 333 l -8 233 b 99 23 0 114 55 53 b 270 -23 144 -8 201 -23 b 332 -19 289 -23 310 -22 b 555 310 455 -5 530 106 b 555 311 555 310 555 311 b 555 311 555 311 555 311 b 555 312 555 312 555 312 b 527 351 555 339 540 350 z "},"d":{"ha":724,"x_min":0,"x_max":0,"o":"m 827 760 b 854 1047 872 866 882 970 b 670 1160 825 1124 760 1165 b 669 1159 670 1160 669 1160 b 669 1159 669 1159 669 1159 b 455 975 607 1155 519 1120 b 371 471 402 857 374 688 b 207 537 342 502 291 537 b 78 483 173 537 121 523 b -4 255 23 433 -4 356 b 87 45 -4 210 15 108 b 231 -6 126 11 175 -6 b 259 -4 240 -6 250 -5 b 407 157 331 2 384 61 b 634 -37 445 62 528 -37 b 783 220 748 -37 773 143 b 788 246 785 232 786 242 b 782 276 791 259 789 270 b 757 281 776 282 767 284 b 728 253 745 278 732 267 b 727 247 728 251 728 249 b 697 138 723 229 713 181 b 650 67 678 86 660 67 b 600 249 641 72 617 121 b 596 480 588 345 586 440 b 827 760 697 549 779 649 z m 645 838 b 732 1020 684 984 719 1014 b 751 1018 736 1022 742 1024 b 780 954 768 1005 778 983 b 601 600 786 860 712 716 b 645 838 609 675 625 764 z m 255 78 b 209 144 237 78 219 104 b 306 429 188 228 204 376 b 347 307 330 425 347 376 b 255 78 347 199 308 78 z "},"e":{"ha":468,"x_min":0,"x_max":0,"o":"m 492 357 b 468 340 481 358 470 351 b 468 340 468 340 468 340 b 468 339 468 339 468 339 b 299 49 453 214 376 60 b 249 63 280 46 264 51 b 198 184 216 90 199 148 b 357 259 267 190 321 215 b 397 446 408 322 409 407 b 224 543 372 534 273 548 b 224 543 224 543 224 543 b 223 543 224 543 224 543 b 223 542 223 542 223 542 b 72 469 215 542 135 534 b 3 243 19 415 -4 339 l 3 241 b 101 35 11 124 61 65 b 257 -10 142 5 194 -10 b 314 -6 275 -10 294 -9 b 517 316 426 8 495 117 b 517 317 517 317 517 317 b 517 318 517 317 517 318 b 517 318 517 318 517 318 b 492 357 518 344 504 355 z m 272 431 b 301 448 282 441 292 447 b 319 408 312 441 317 423 b 257 249 329 303 284 264 b 197 239 230 236 205 237 b 272 431 196 285 227 388 z "},"f":{"ha":561,"x_min":0,"x_max":0,"o":"m 652 343 b 630 345 644 351 634 347 b 477 295 614 339 544 313 b 342 278 384 269 352 273 b 300 294 328 290 314 297 b 258 268 279 289 265 281 b 253 225 251 257 250 243 b 263 201 254 220 257 215 b 278 -290 294 129 388 -89 b 238 -43 268 -260 252 -177 b 230 264 224 96 221 215 b 463 658 334 361 417 501 b 476 1046 506 805 511 950 b 302 1169 444 1132 382 1176 b 302 1169 302 1169 302 1169 b 302 1169 302 1169 302 1169 b 91 924 240 1163 154 1116 b 7 194 35 756 7 510 b 7 193 7 193 7 193 b 7 193 7 193 7 193 b 7 192 7 193 7 192 b 25 -86 9 136 16 -9 b 164 -411 44 -241 96 -363 b 233 -434 186 -427 209 -434 b 271 -428 246 -434 258 -432 b 429 78 458 -363 472 -115 b 394 189 420 116 408 155 b 563 252 461 199 522 228 b 655 325 603 275 649 309 b 652 343 657 332 656 339 z m 278 746 b 367 989 319 951 356 984 b 382 986 370 991 375 992 b 390 739 420 948 422 856 b 234 418 360 631 304 516 b 278 746 242 521 258 645 z "},"g":{"ha":682,"x_min":0,"x_max":0,"o":"m 657 293 b 478 555 634 449 610 551 b 385 510 447 556 402 539 b 378 494 381 505 379 500 b 195 528 337 520 275 540 b 74 473 162 524 115 510 b -4 253 22 425 -4 351 b 89 44 -4 207 15 104 b 220 -1 125 14 169 -1 b 247 0 228 -1 238 -1 b 393 89 273 3 341 17 b 444 215 417 123 434 166 b 435 56 448 146 445 88 b 189 -198 330 -6 242 -96 b 148 -464 139 -295 124 -392 b 328 -580 174 -539 237 -580 b 337 -580 331 -580 334 -580 b 337 -580 337 -580 337 -580 b 564 -412 401 -577 493 -546 b 669 97 626 -296 662 -124 b 669 97 669 97 669 97 b 669 98 669 97 669 98 b 657 293 669 136 665 239 z m 303 150 b 243 80 287 106 264 80 b 202 137 227 80 211 102 b 291 423 177 224 194 371 b 329 304 314 419 329 371 b 303 150 329 250 320 193 z m 288 -482 b 265 -481 280 -486 273 -485 b 236 -418 247 -467 237 -446 b 442 -77 233 -326 318 -187 b 288 -482 419 -234 351 -455 z "},"h":{"ha":618,"x_min":0,"x_max":0,"o":"m 693 353 b 674 370 690 369 678 370 b 661 359 668 370 662 365 b 567 118 642 267 600 131 b 558 119 564 117 561 117 b 532 257 541 131 537 186 b 512 458 528 311 524 379 b 427 544 500 537 454 546 b 243 355 349 538 243 429 b 243 355 243 355 243 355 b 253 236 242 323 247 278 b 263 131 257 198 262 160 b 256 85 264 90 256 85 b 255 85 256 85 256 85 b 207 264 246 89 223 137 b 203 491 196 358 194 451 b 424 767 300 559 378 657 b 449 1048 467 871 476 973 b 274 1160 422 1125 360 1164 b 273 1160 274 1160 273 1160 b 273 1160 273 1160 273 1160 b 133 1080 223 1156 175 1128 b 12 784 77 1014 36 912 b 4 247 -14 636 -17 455 b 4 246 4 247 4 247 b 5 238 4 244 5 241 b 5 237 5 238 5 237 b 5 235 5 236 5 236 b 5 235 5 235 5 235 b 80 58 14 168 40 105 b 231 -18 122 9 175 -18 b 240 -17 234 -18 237 -17 b 290 7 260 -16 276 -8 b 331 212 326 48 333 135 b 348 98 335 174 340 135 b 420 -41 364 22 388 -24 b 450 -49 429 -46 440 -49 b 492 -37 464 -49 478 -45 b 648 166 570 4 624 108 b 693 353 681 243 701 325 z m 250 843 b 333 1022 287 987 320 1017 b 351 1020 337 1024 343 1026 b 379 957 368 1007 377 986 b 208 609 385 865 314 723 b 250 843 216 682 231 770 z "},"i":{"ha":354,"x_min":0,"x_max":0,"o":"m 404 346 b 372 328 389 348 376 341 b 370 323 371 327 371 325 b 252 96 322 162 277 100 b 243 103 249 96 247 98 b 222 276 227 126 219 195 b 254 447 225 354 238 424 b 254 476 260 455 260 466 b 80 537 235 508 144 540 b 70 536 77 537 74 536 b 12 503 34 532 19 516 b -9 284 -15 448 -22 370 b 74 72 3 202 34 125 b 214 -1 115 18 163 -7 b 216 -1 215 -1 215 -1 b 387 161 286 8 345 64 b 431 317 419 236 430 309 b 404 346 432 331 420 344 z m 135 578 b 195 561 151 564 172 558 b 195 561 195 561 195 561 b 244 587 214 563 232 572 b 259 632 255 600 261 617 b 177 696 255 669 216 700 b 110 639 136 691 112 670 b 135 578 109 621 116 595 z "},"j":{"ha":432,"x_min":0,"x_max":0,"o":"m 412 284 b 245 544 392 438 369 540 b 159 502 217 545 177 530 b 162 433 145 481 146 457 b 170 427 164 430 167 428 b 172 420 170 425 170 422 b 203 50 204 362 227 132 b -58 -475 -16 -88 -111 -336 b 106 -579 -32 -542 26 -579 b 115 -579 109 -579 112 -579 b 115 -579 115 -579 115 -579 b 116 -579 116 -579 116 -579 b 327 -413 176 -576 261 -545 b 424 90 384 -298 417 -129 b 424 91 424 90 424 91 b 424 91 424 91 424 91 b 412 284 423 129 420 230 z m 159 -310 b 67 -482 129 -407 95 -471 b 51 -481 61 -485 56 -484 b 24 -419 34 -468 25 -447 b 209 -87 21 -330 97 -195 b 159 -310 199 -158 180 -241 z m 237 625 b 237 625 237 625 237 625 b 295 647 259 625 279 633 b 318 692 309 659 318 676 b 233 768 317 732 277 768 b 150 717 187 768 156 749 b 172 650 147 698 152 670 b 237 625 187 634 210 625 z "},"k":{"ha":671,"x_min":0,"x_max":0,"o":"m 741 359 b 721 376 737 375 724 376 b 706 365 714 376 707 371 b 606 128 686 274 642 141 b 596 129 603 126 600 126 b 569 265 578 140 574 195 b 547 462 565 318 560 384 b 456 547 535 540 485 549 b 260 361 374 542 260 434 b 260 361 260 361 260 361 b 270 243 259 329 265 286 b 281 140 275 207 280 169 b 274 95 282 100 274 95 b 273 95 274 95 274 95 b 232 209 267 98 249 123 b 211 414 220 273 212 351 b 211 415 211 414 211 415 b 577 671 273 474 497 668 b 592 685 586 671 592 678 b 576 698 591 693 584 698 b 212 455 486 694 285 521 b 218 495 213 471 215 485 b 453 766 321 562 404 658 b 480 1044 499 869 509 970 b 293 1153 451 1119 385 1158 b 292 1153 293 1153 292 1153 b 292 1153 292 1153 292 1153 b 143 1074 239 1150 187 1122 b 14 783 83 1010 39 909 b 5 254 -15 638 -18 460 b 6 247 5 252 5 250 b 6 245 6 247 6 246 b 6 244 6 244 6 244 b 6 243 6 243 6 243 b 86 69 15 177 43 115 b 247 -6 131 21 188 -6 b 257 -5 250 -6 254 -6 b 310 19 278 -4 296 4 b 354 220 349 59 356 144 b 372 108 358 183 364 144 b 449 -29 389 33 414 -12 b 481 -37 459 -34 470 -37 b 526 -25 496 -37 510 -33 b 693 175 610 16 666 118 b 741 359 727 251 749 331 z m 268 841 b 356 1018 307 984 343 1012 b 375 1016 361 1020 367 1021 b 375 1016 375 1016 375 1016 b 405 954 393 1003 403 982 b 223 611 411 863 336 724 b 268 841 231 683 247 770 z "},"l":{"ha":332,"x_min":0,"x_max":0,"o":"m 444 765 b 475 1044 490 867 502 969 b 287 1160 447 1125 380 1166 b 287 1160 287 1160 287 1160 b 287 1160 287 1160 287 1160 b 70 980 224 1156 136 1122 b -16 446 13 857 -16 677 b -16 445 -16 446 -16 446 b -16 445 -16 445 -16 445 b 3 241 -14 405 -6 298 b 90 49 17 160 47 94 b 231 -12 129 9 178 -12 b 252 -11 238 -12 245 -12 b 402 241 366 0 391 169 b 406 265 404 252 405 261 b 401 295 411 282 406 290 b 376 300 395 301 386 302 b 348 272 365 296 351 286 b 346 266 347 271 347 269 b 268 90 307 93 271 90 b 257 103 268 90 264 92 b 212 302 239 135 222 211 b 212 494 203 386 203 460 b 444 765 313 561 395 657 z m 349 1022 b 371 1022 356 1026 363 1026 b 400 958 388 1009 398 987 b 217 611 406 866 330 724 b 349 1022 233 770 290 993 z "},"m":{"ha":975,"x_min":0,"x_max":0,"o":"m 1047 246 b 1018 265 1047 255 1039 265 b 986 247 1000 266 988 259 b 986 247 986 247 986 247 b 986 246 986 247 986 247 b 986 246 986 246 986 246 b 986 246 986 246 986 246 b 957 39 985 215 977 125 b 884 -115 930 -80 900 -109 b 885 -1 881 -105 879 -78 b 909 218 890 63 900 142 b 931 470 924 335 936 436 b 893 531 928 496 915 517 b 685 544 841 565 752 560 b 569 355 642 534 605 472 b 520 142 543 267 526 173 b 519 139 520 141 519 140 b 523 242 514 147 508 171 b 567 399 535 294 553 352 b 585 487 589 469 592 478 b 446 535 567 509 500 532 b 349 504 403 537 369 526 b 340 500 347 503 343 501 b 206 344 312 486 250 455 b 219 490 209 386 213 436 b 203 542 228 507 222 526 b 40 545 171 570 97 589 b -6 397 17 527 1 477 b 28 66 -16 286 -8 105 b 160 19 57 35 115 19 b 201 26 176 19 190 21 b 223 53 221 33 223 47 b 223 55 223 54 223 54 b 223 55 223 55 223 55 b 208 154 216 106 211 135 b 201 212 204 181 203 189 b 332 463 229 379 292 438 b 369 51 276 295 310 134 b 451 -4 394 16 423 -4 b 600 19 544 -4 598 18 b 609 31 605 21 608 26 b 634 238 609 32 618 135 b 663 384 643 299 653 348 b 689 446 674 424 683 440 b 679 327 691 426 685 374 b 729 -142 661 180 633 -43 b 860 -192 761 -176 805 -192 b 869 -192 863 -192 866 -192 b 869 -192 869 -192 869 -192 b 942 -160 896 -192 921 -181 b 1047 246 1027 -77 1050 149 z "},"n":{"ha":701,"x_min":0,"x_max":0,"o":"m 772 239 b 742 259 772 248 764 258 b 709 241 723 259 711 252 b 709 241 709 241 709 241 b 709 240 709 240 709 240 b 709 240 709 240 709 240 b 709 239 709 240 709 239 b 679 33 708 209 699 119 b 602 -121 650 -87 619 -115 b 603 -8 600 -112 597 -85 b 629 212 609 56 619 135 b 652 464 644 329 657 429 b 611 525 649 490 635 510 b 394 538 558 559 464 554 b 274 349 350 528 311 466 b 222 136 246 261 228 167 b 221 133 222 135 222 134 b 226 235 216 140 210 164 b 272 393 238 288 257 346 b 290 481 294 463 297 472 b 138 530 273 502 201 528 b 43 497 95 530 62 519 b 42 497 43 497 42 497 b 42 496 42 497 42 496 b 41 495 41 496 41 496 b 40 494 41 495 41 495 b 40 493 40 494 40 494 b 40 493 40 493 40 493 b 64 45 -38 312 -2 134 b 151 -10 91 9 121 -10 b 306 13 247 -10 303 12 b 315 24 311 15 314 19 b 341 232 315 26 324 128 b 372 378 351 293 361 342 b 398 440 383 418 393 434 b 388 321 401 420 394 368 b 440 -148 369 173 340 -49 b 577 -199 474 -182 520 -199 b 587 -199 580 -199 584 -199 b 587 -199 587 -199 587 -199 b 663 -166 615 -198 641 -188 b 772 239 752 -83 775 143 z "},"o":{"ha":631,"x_min":0,"x_max":0,"o":"m 535 453 b 534 453 535 453 534 453 b 275 527 474 517 347 535 b 275 527 275 527 275 527 b 88 456 260 526 164 517 b 3 236 23 403 -6 329 l 3 234 b 119 41 13 126 72 69 b 331 -9 174 8 245 -9 b 386 -7 349 -9 367 -8 b 555 89 455 -1 514 32 b 535 452 619 180 633 334 b 535 453 535 452 535 452 z m 307 64 b 249 190 267 88 249 145 b 249 190 249 190 249 190 b 289 371 249 264 263 326 b 375 431 312 409 342 431 b 375 431 375 431 375 431 b 377 431 376 431 376 431 b 378 431 377 431 377 431 b 469 302 414 434 453 379 b 367 52 492 187 460 63 b 307 64 344 50 324 53 z "},"p":{"ha":856,"x_min":0,"x_max":0,"o":"m 830 278 b 732 474 829 324 806 416 b 539 521 681 514 616 530 b 385 359 462 512 407 453 b 322 457 369 395 347 429 b 150 536 273 510 213 538 b 88 487 123 535 100 517 b 87 452 77 461 84 454 b 191 41 152 397 212 128 b -73 -509 -37 -110 -130 -365 b 115 -621 -43 -585 24 -624 b 132 -620 120 -621 126 -621 b 310 -454 169 -619 242 -595 b 428 62 369 -333 409 -160 b 612 -2 476 17 537 -4 b 748 54 648 -1 703 15 b 830 278 805 105 833 180 z m 127 -320 b 33 -481 91 -417 55 -469 b 5 -424 17 -469 8 -449 b 189 -75 -3 -333 72 -191 b 127 -320 181 -148 158 -238 z m 502 100 b 470 129 489 101 478 111 b 452 217 460 150 454 181 b 546 441 449 321 488 439 b 601 373 567 442 589 415 b 502 100 624 291 608 153 z "},"q":{"ha":721,"x_min":0,"x_max":0,"o":"m 810 286 b 777 263 798 288 783 282 b 775 257 777 262 776 260 b 701 58 750 180 725 113 b 602 -98 639 -88 608 -98 b 594 -84 601 -98 598 -95 b 647 396 561 6 604 333 b 641 446 653 406 657 422 b 452 538 609 490 516 542 b 416 527 438 537 426 533 b 392 502 406 521 398 513 b 375 458 386 488 380 474 b 173 524 329 515 262 536 b 52 470 140 520 93 507 b -27 256 0 423 -27 351 b 67 51 -27 210 -7 109 b 198 7 103 22 147 7 b 226 9 207 7 217 8 b 352 114 270 13 323 36 b 443 -155 366 6 397 -94 b 550 -217 474 -196 510 -217 b 552 -217 551 -217 551 -217 b 831 253 741 -214 830 248 b 810 286 834 272 822 283 z m 236 87 b 203 132 227 87 213 101 b 199 291 189 177 187 237 b 280 421 212 351 241 397 b 313 305 297 416 313 375 b 236 87 313 193 275 87 z "},"r":{"ha":589,"x_min":0,"x_max":0,"o":"m 546 421 b 435 471 521 447 481 466 b 314 448 388 477 344 469 l 312 447 b 297 437 306 443 301 440 b 323 482 306 458 315 473 b 327 507 330 489 331 498 b 190 550 313 536 231 548 b 46 511 155 551 73 551 b -4 291 10 458 -8 379 b 61 64 0 206 23 123 b 206 -29 99 4 149 -29 b 213 -30 208 -29 210 -30 b 299 -1 263 -30 290 -21 b 268 62 309 21 288 45 b 238 172 248 80 238 119 l 238 172 b 387 339 241 258 305 329 b 426 290 410 342 413 337 b 432 266 428 283 430 275 b 457 246 435 255 445 247 b 554 311 486 243 530 272 b 546 421 578 350 575 391 z "},"s":{"ha":517,"x_min":0,"x_max":0,"o":"m 584 259 b 300 231 491 286 341 247 b 300 232 300 232 300 232 b 300 232 300 232 300 232 b 299 233 300 232 299 233 b 298 234 299 233 298 233 b 225 564 200 331 187 477 b 309 636 236 590 262 634 b 365 620 335 638 353 632 b 374 504 392 591 380 530 b 372 489 373 496 372 492 b 373 484 372 487 372 486 b 397 464 376 474 384 467 b 412 463 401 463 406 463 b 471 485 435 463 466 470 b 460 648 494 553 490 608 b 258 719 408 715 295 718 b 249 719 254 719 250 719 b 248 719 249 719 248 719 b 247 719 248 719 247 719 b 247 719 247 719 247 719 b 68 665 217 719 139 714 b -38 467 3 620 -34 552 b 168 131 -47 282 43 219 b 170 129 168 130 169 130 b 141 -143 58 -23 103 -107 b 274 -194 176 -178 228 -194 b 348 -177 302 -194 328 -188 b 348 -176 348 -177 348 -177 b 349 -176 348 -176 349 -176 b 350 -176 349 -176 349 -176 b 440 -47 403 -141 433 -97 b 353 171 451 33 400 114 b 576 232 494 251 575 232 b 594 241 583 230 592 234 b 584 259 596 249 592 256 z m 323 -121 b 303 -132 321 -127 317 -132 b 199 -67 253 -127 216 -103 b 231 72 182 -27 193 23 b 286 -2 251 50 270 24 b 323 -121 316 -53 331 -100 z "},"t":{"ha":453,"x_min":0,"x_max":0,"o":"m 733 776 b 624 797 730 792 711 815 b 294 781 553 783 425 780 b 395 1053 319 905 355 1003 b 396 1054 395 1053 396 1054 b 397 1055 396 1054 396 1054 b 397 1055 397 1055 397 1055 b 397 1056 397 1055 397 1056 b 398 1057 397 1056 398 1057 b 395 1100 404 1072 403 1086 b 249 1153 372 1135 303 1153 b 72 1042 181 1159 120 1121 b -13 791 33 979 4 891 b -123 798 -75 794 -117 797 b -123 798 -123 798 -123 798 b -202 761 -156 802 -198 787 b -187 733 -203 755 -203 743 b -146 718 -178 727 -164 722 b -24 712 -145 718 -96 715 b -30 603 -27 676 -29 640 b 72 146 -32 420 6 254 b 305 3 131 52 211 3 b 334 5 314 3 324 4 b 334 5 334 5 334 5 b 496 255 457 16 484 183 b 501 279 498 265 499 275 b 496 308 505 294 501 303 b 470 314 490 315 481 317 b 440 286 458 311 444 301 b 438 280 439 285 439 283 b 405 173 434 262 422 215 b 352 107 386 129 367 104 b 292 175 328 110 308 133 b 271 633 257 268 249 443 b 280 703 273 657 277 680 b 386 702 316 702 351 702 b 667 718 508 702 617 706 b 733 776 711 729 738 752 z "},"u":{"ha":553,"x_min":0,"x_max":0,"o":"m 522 428 b 521 451 521 438 521 447 b 521 451 521 451 521 451 b 479 528 521 498 495 519 b 406 530 456 540 428 541 b 379 486 389 520 379 505 b 383 415 379 469 381 444 b 339 120 391 318 405 139 b 276 315 300 149 278 216 b 274 473 274 395 273 462 b 274 480 274 475 274 477 b 274 482 274 480 274 480 l 273 483 b 215 551 270 520 255 542 b -2 490 140 568 35 531 b -3 489 -2 489 -3 489 b -3 488 -3 488 -3 488 b -4 487 -4 487 -4 487 b -5 486 -4 487 -4 486 b -5 485 -5 486 -5 485 b -5 485 -5 485 -5 485 b -5 484 -5 484 -5 484 l -5 484 b -5 484 -5 484 -5 484 b 4 233 -22 400 -19 313 b 104 50 24 161 60 96 b 245 -17 147 7 197 -17 b 253 -17 248 -17 250 -17 b 443 62 333 -12 397 14 b 522 428 545 170 529 357 z "},"v":{"ha":574,"x_min":0,"x_max":0,"o":"m 562 490 b 474 504 553 500 529 516 b 333 141 388 486 354 301 b 331 127 332 136 332 131 b 278 306 299 159 281 220 b 290 463 276 383 288 454 b 291 467 291 464 291 465 b 291 469 291 467 291 468 b 291 469 291 469 291 469 b 215 534 283 503 257 525 b -10 474 138 550 29 515 b -10 474 -10 474 -10 474 b -10 473 -10 474 -10 474 b -11 473 -11 473 -11 473 b -11 473 -11 473 -11 473 b -12 472 -11 472 -11 472 b -12 470 -12 471 -12 470 b -13 469 -13 469 -13 469 b -13 468 -13 469 -13 468 b 136 39 -49 295 36 128 b 248 -17 177 2 216 -17 b 256 -17 251 -17 253 -17 b 415 5 387 -2 412 5 b 424 16 420 7 424 11 b 453 221 424 17 435 119 b 518 426 487 419 517 425 b 528 429 522 426 526 427 b 567 449 545 429 560 437 b 562 490 575 463 573 479 z "},"w":{"ha":774,"x_min":0,"x_max":0,"o":"m 725 482 b 703 494 722 489 713 494 b 662 473 688 495 668 484 b 663 458 660 468 660 462 b 600 89 711 283 652 141 b 554 64 584 72 567 63 b 536 73 546 65 541 67 b 583 336 507 111 553 246 b 615 447 600 387 614 427 b 533 533 615 488 586 519 b 332 489 465 550 365 535 b 255 185 302 446 274 295 b 255 182 255 184 255 183 b 266 457 207 254 258 436 b 268 463 267 459 268 461 b 268 465 268 463 268 464 b 268 465 268 465 268 465 b 176 535 260 500 228 524 b 72 536 144 542 106 542 b -6 501 35 530 7 518 b -7 501 -7 501 -7 501 b -7 500 -7 501 -7 501 b -8 500 -7 500 -8 500 b -8 499 -8 500 -8 499 b -8 498 -8 499 -8 498 b -9 497 -9 498 -9 497 b -9 496 -9 497 -9 496 b -9 496 -9 496 -9 496 b 128 84 -41 324 52 152 b 200 51 155 60 179 49 b 321 70 300 64 319 70 b 330 81 326 72 330 76 b 351 249 330 81 338 164 b 394 419 369 366 385 406 b 385 347 394 404 389 374 b 420 40 371 252 348 109 b 535 0 448 13 486 0 b 545 0 538 0 541 0 b 545 0 545 0 545 0 b 683 68 602 0 649 23 b 748 297 733 133 746 228 b 725 482 751 380 739 453 z "},"x":{"ha":446,"x_min":0,"x_max":0,"o":"m 501 508 b 434 526 491 526 464 537 b 247 430 404 515 332 481 b 252 485 249 460 252 481 b 253 490 253 487 253 489 b 253 490 253 490 253 490 l 253 490 b 166 555 245 532 214 555 b 165 555 165 555 165 555 b 30 491 108 555 37 521 b 30 490 30 491 30 491 b 30 490 30 490 30 490 b 30 490 30 490 30 490 b 28 273 17 417 16 343 b -113 120 -25 227 -74 176 b -117 101 -116 117 -119 111 b -92 72 -114 91 -106 75 b -87 72 -90 72 -89 72 b -71 80 -81 72 -76 75 b 45 199 -33 125 6 165 b 65 145 50 180 57 162 b 218 -14 103 55 162 -6 b 218 -14 218 -14 218 -14 b 218 -14 218 -14 218 -14 b 252 -17 230 -16 241 -17 b 406 75 317 -17 371 15 b 477 254 463 173 477 246 b 461 269 477 261 470 268 b 440 256 451 269 442 264 b 432 236 437 250 435 243 b 311 115 398 145 377 98 b 246 319 273 143 251 214 b 245 347 246 328 245 338 b 461 447 332 397 407 426 b 483 455 469 450 476 452 b 483 455 483 455 483 455 b 484 456 483 455 484 455 b 486 457 485 456 485 456 b 501 508 509 471 510 493 z "},"y":{"ha":607,"x_min":0,"x_max":0,"o":"m 496 487 b 384 538 466 521 428 538 b 382 538 383 538 383 538 b 300 432 344 536 310 457 b 297 399 293 414 290 406 b 343 297 314 382 330 343 b 287 173 326 252 306 208 b 203 67 236 76 210 68 b 196 75 201 67 199 70 b 194 245 184 100 184 166 b 239 407 205 320 223 387 b 242 435 245 415 246 425 b 95 513 228 468 151 509 b 31 487 56 516 39 500 b -9 278 2 437 -13 362 b 44 63 -6 197 13 118 b 160 -23 74 7 115 -23 b 162 -23 161 -23 161 -23 b 327 113 224 -22 281 25 b 364 203 343 145 356 178 b 373 14 377 128 382 51 b 140 -492 180 -121 96 -355 b 293 -602 162 -563 216 -602 b 306 -602 297 -602 302 -602 b 307 -602 307 -602 307 -602 b 469 -505 359 -602 419 -590 b 576 -47 519 -421 554 -271 b 576 -46 576 -47 576 -46 b 576 -46 576 -46 576 -46 b 496 487 596 225 569 405 z m 324 -325 b 245 -470 299 -410 270 -463 b 220 -407 230 -456 222 -435 b 261 -247 217 -363 232 -306 b 368 -95 288 -193 325 -141 b 324 -325 361 -170 344 -256 z "},"z":{"ha":507,"x_min":0,"x_max":0,"o":"m 620 52 b 603 43 613 54 605 50 b 516 -37 585 -8 555 -30 b 501 43 513 -6 507 22 b 308 227 469 148 365 203 b 343 252 320 233 332 241 b 351 259 346 254 349 257 b 424 393 373 278 422 327 b 376 507 425 438 408 477 b 258 556 347 533 306 550 b 103 515 204 563 147 547 b 28 381 73 492 35 451 b 31 372 28 378 29 375 b 29 366 30 371 29 368 b 74 334 29 358 32 349 b 150 314 98 325 126 318 b 228 337 195 308 221 316 b 236 394 233 352 235 373 b 264 480 239 430 242 478 b 372 411 321 488 359 463 b 328 276 377 389 365 319 b 323 271 327 274 325 273 b 271 245 303 255 283 246 b 271 245 271 245 271 245 b 269 245 271 245 270 245 b 183 207 245 250 213 236 b 138 101 153 177 127 133 b 182 70 142 90 153 74 b 331 -15 241 60 291 28 b 82 -46 248 0 160 7 b 13 -268 24 -85 -7 -185 b 205 -432 25 -318 66 -406 b 269 -438 227 -436 249 -438 b 333 -430 292 -438 313 -435 b 391 -406 355 -426 375 -418 b 430 -374 405 -397 418 -386 b 518 -63 506 -297 524 -166 b 522 -62 520 -63 521 -63 b 629 35 575 -54 610 -22 b 620 52 632 42 628 49 z m 378 -382 b 325 -405 362 -393 344 -400 b 210 -406 291 -413 253 -414 b 40 -262 119 -389 58 -338 b 99 -67 21 -182 55 -96 b 229 -30 139 -39 183 -30 b 357 -46 271 -30 314 -38 b 427 -253 401 -108 427 -184 b 378 -382 427 -284 421 -347 z "},"{":{"ha":918,"x_min":0,"x_max":0,"o":"m 842 474 b 830 479 839 478 834 479 b 825 478 828 479 827 478 b 439 356 639 400 547 378 b 199 221 347 339 264 292 b 78 -26 137 152 95 67 b 106 -301 60 -120 70 -215 b 312 -534 146 -395 217 -475 b 412 -567 353 -558 386 -567 b 475 -546 440 -567 461 -557 b 521 -354 527 -506 540 -414 b 426 -236 497 -281 466 -261 b 320 -149 398 -219 364 -197 b 286 107 269 -93 255 13 b 434 257 313 189 367 243 b 839 382 571 284 801 361 b 846 393 843 385 846 389 b 842 474 853 464 846 470 z "},"|":{"ha":271,"x_min":0,"x_max":0,"o":"m 199 899 b 131 940 192 929 159 942 b 84 897 103 937 84 920 b 82 860 83 890 83 877 b 85 23 59 155 73 45 b 134 0 93 9 113 0 b 137 0 135 0 136 0 b 178 24 156 1 171 9 b 190 174 181 28 185 37 b 197 466 193 269 196 385 b 199 899 200 600 203 883 z "},"}":{"ha":1018,"x_min":0,"x_max":0,"o":"m 948 759 b 827 1045 940 860 898 959 b 676 1109 764 1120 710 1121 b 572 941 615 1087 573 1005 b 624 800 571 865 594 836 b 696 683 645 774 671 742 b 670 442 728 610 718 513 b 457 335 623 371 547 333 b 238 342 327 338 273 340 b 104 343 198 344 181 345 b 103 343 103 343 103 343 b 69 285 82 340 69 298 b 86 269 70 274 78 269 b 423 242 187 272 235 266 b 482 238 442 239 462 238 b 693 294 554 238 627 257 b 887 489 774 339 841 406 b 948 759 933 573 954 666 z "},"~":{"ha":567,"x_min":0,"x_max":0,"o":"m 494 564 b 474 564 488 569 479 569 b 366 509 455 545 404 507 b 297 550 343 511 318 531 b 244 582 278 566 261 580 b 78 506 202 587 152 564 b 75 504 77 505 76 505 b 72 484 69 499 68 490 b 92 482 77 478 86 477 b 95 484 93 483 94 483 b 236 513 138 517 185 526 b 264 491 243 511 253 501 b 363 440 286 469 316 440 b 478 525 412 440 453 493 b 493 544 485 534 490 541 b 494 564 499 549 499 558 z "},"":{"ha":414,"x_min":0,"x_max":0,"o":""},"":{"ha":0,"x_min":0,"x_max":0,"o":""},"":{"ha":1047,"x_min":0,"x_max":0,"o":"m 1078 688 b 959 969 1071 787 1030 885 b 811 1031 898 1042 845 1043 b 709 867 751 1010 710 929 b 760 728 708 792 731 763 b 831 614 780 703 806 672 b 805 376 862 542 852 446 b 596 272 759 307 685 270 b 374 282 468 274 409 280 b 269 271 339 283 323 285 b 208 589 185 367 174 505 b 285 660 218 614 242 657 b 336 643 309 661 325 655 b 345 530 361 615 350 555 b 343 515 343 522 343 518 b 344 510 343 513 343 512 b 366 490 346 500 354 493 b 379 489 369 489 374 489 b 433 511 400 489 428 496 b 423 671 454 578 451 632 b 239 741 376 737 273 740 b 230 741 235 741 231 741 b 229 741 230 741 230 741 b 228 741 229 741 229 741 b 228 741 228 741 228 741 b 65 688 201 741 129 736 b -32 493 5 644 -28 576 b 156 163 -40 312 42 250 b 158 161 156 162 157 162 b 131 -106 56 12 97 -70 b 253 -156 163 -140 211 -156 b 320 -139 279 -156 303 -150 b 321 -139 321 -139 321 -139 b 321 -138 321 -139 321 -138 b 322 -138 322 -138 322 -138 b 405 -12 371 -103 399 -61 b 323 206 415 66 365 149 b 562 180 379 208 438 202 b 620 176 592 175 601 176 b 828 231 692 176 763 195 b 1018 423 907 275 973 341 b 1078 688 1064 505 1085 597 z m 298 -84 b 280 -95 296 -90 292 -95 b 185 -31 234 -90 200 -67 b 213 106 168 8 179 57 b 264 32 232 83 249 58 b 298 -84 291 -17 305 -63 z "},"":{"ha":1199,"x_min":0,"x_max":0,"o":"m 1109 565 b 938 664 1067 615 1008 649 b 727 648 870 678 797 673 b 575 552 670 627 617 595 b 542 515 563 540 552 528 b 450 403 501 465 473 431 b 448 421 449 410 449 415 b 447 443 448 431 447 439 b 447 443 447 443 447 443 b 411 516 448 488 425 508 b 348 518 391 527 367 528 b 325 476 333 509 325 494 b 328 409 325 460 326 436 b 291 128 335 316 347 146 b 236 314 257 155 238 219 b 246 468 234 390 244 460 b 246 472 246 469 246 471 b 246 474 246 473 246 473 l 246 474 b 183 538 240 507 218 529 b -4 480 119 554 28 519 b -5 479 -4 479 -4 479 b -5 478 -5 478 -5 478 b -6 477 -5 478 -5 477 b -6 476 -6 477 -6 476 b -6 475 -6 476 -6 475 b -6 475 -6 475 -6 475 b -7 474 -6 475 -7 474 l -7 474 b -7 474 -7 474 -7 474 b 1 236 -21 394 -18 312 b 88 62 18 167 49 105 b 209 -2 125 20 168 -2 b 216 -2 212 -2 214 -2 b 380 73 285 2 341 28 b 453 326 440 142 452 245 b 482 357 463 337 471 345 b 609 489 502 379 533 411 b 787 560 661 543 724 568 b 923 455 851 553 905 510 b 938 354 937 410 937 379 b 978 253 938 318 939 290 b 1123 230 1010 221 1076 205 b 1180 350 1149 244 1180 276 b 1109 565 1179 435 1155 509 z "},"":{"ha":1021,"x_min":0,"x_max":0,"o":"m 992 561 b 831 720 953 636 897 691 b 634 731 771 745 703 749 b 453 621 567 713 504 674 b 362 466 411 576 381 523 b 350 419 357 450 353 435 b 327 307 340 373 333 337 b 284 137 306 220 286 137 b 278 140 281 137 281 137 b 234 316 251 172 236 232 b 244 470 232 392 242 462 b 245 474 244 472 245 473 b 244 476 245 475 245 476 b 244 476 244 476 244 476 b 181 540 238 509 216 531 b -6 482 117 556 26 521 b -6 481 -6 482 -6 481 b -7 481 -6 481 -6 481 b -7 480 -7 481 -7 480 b -7 480 -7 480 -7 480 b -8 479 -7 480 -7 479 b -8 477 -8 478 -8 478 b -8 476 -8 477 -8 476 b -9 476 -9 476 -9 476 b 116 54 -39 306 32 141 b 209 -1 150 18 182 -1 b 215 0 211 -1 213 -1 b 348 21 325 14 346 20 b 356 31 352 23 355 27 b 379 233 356 32 362 133 b 407 385 392 307 401 354 b 416 417 410 395 413 405 b 449 490 422 443 434 468 b 459 504 451 493 454 496 b 460 505 459 504 459 504 b 546 570 484 535 514 558 b 715 537 606 592 674 579 b 774 454 748 504 763 476 b 856 382 791 423 804 398 b 995 428 899 369 965 384 b 992 561 1012 452 1025 495 z "},"":{"ha":1511,"x_min":0,"x_max":0,"o":"m 1467 512 b 1274 702 1421 601 1354 666 b 1038 723 1202 734 1120 741 b 820 603 957 705 881 663 b 708 428 769 553 731 494 b 692 373 702 410 696 392 b 610 62 652 197 644 152 b 589 26 601 43 594 31 b 530 11 566 0 534 9 b 513 23 527 12 518 17 b 558 315 485 65 529 215 b 589 439 575 371 589 416 b 510 533 590 484 561 518 b 316 484 445 553 348 536 b 241 148 286 437 259 270 b 241 144 241 147 241 145 b 252 450 195 224 244 426 b 253 456 253 451 253 453 b 253 458 253 456 253 457 b 253 458 253 458 253 458 b 164 536 246 496 215 524 b 63 537 133 543 96 544 b -12 498 28 530 1 517 b -13 498 -13 498 -13 498 b -13 497 -13 498 -13 498 b -14 497 -13 497 -13 497 b -14 496 -14 496 -14 496 b -14 495 -14 496 -14 495 b -15 494 -14 495 -15 494 b -15 493 -15 493 -15 493 b -15 492 -15 492 -15 492 b 118 35 -46 302 44 111 b 188 -1 144 9 168 -4 b 305 20 284 13 303 19 b 314 32 310 22 313 26 b 334 218 314 33 321 125 b 375 407 351 348 367 392 b 367 327 376 390 371 357 b 401 -14 353 222 331 63 b 512 -58 428 -43 465 -58 b 521 -58 515 -58 518 -58 b 522 -58 522 -58 522 -58 b 655 17 577 -57 622 -32 b 703 137 679 52 694 94 b 714 178 707 151 710 163 b 778 378 724 211 739 260 b 931 540 806 460 860 518 b 1134 496 1004 563 1085 546 b 1205 398 1174 456 1191 424 b 1303 311 1225 361 1241 331 b 1471 358 1354 294 1434 309 b 1467 512 1491 385 1507 434 z "},"":{"ha":1126,"x_min":0,"x_max":0,"o":"m 1088 486 b 928 653 1051 563 995 620 b 727 677 867 682 798 690 b 538 581 657 664 592 630 b 438 435 493 540 459 490 b 424 389 432 420 428 405 b 346 132 386 244 376 204 b 263 55 321 90 292 59 b 219 69 247 52 232 57 b 174 187 190 95 175 152 b 315 260 236 193 283 217 b 350 443 359 322 360 405 b 197 537 327 529 241 542 b 197 537 197 537 197 537 b 197 537 197 537 197 537 b 197 537 197 537 197 537 b 63 466 189 537 119 529 b 3 245 17 413 -4 339 l 3 242 b 89 41 10 129 54 70 b 226 -3 125 12 171 -3 b 276 1 242 -3 259 -2 b 475 329 375 15 422 117 b 497 391 481 347 488 367 b 632 525 522 460 570 507 b 804 481 694 542 763 525 b 862 396 836 446 850 418 b 943 319 878 364 890 338 b 1087 355 986 303 1055 314 b 1088 486 1105 377 1120 419 z m 239 429 b 265 445 248 439 257 444 b 281 406 275 438 279 420 b 226 251 290 303 250 265 b 174 241 203 238 181 239 b 239 429 172 286 200 387 z "},"":{"ha":1553,"x_min":0,"x_max":0,"o":"m 1521 345 b 1383 565 1497 441 1450 517 b 1166 624 1322 608 1247 629 b 934 540 1085 619 1005 590 b 789 385 875 499 826 446 b 763 333 779 368 770 351 b 661 119 713 225 687 168 b 646 93 655 109 650 100 b 646 93 646 93 646 93 b 640 83 644 90 642 86 b 609 79 626 61 616 72 b 563 259 598 90 578 133 b 559 485 551 353 550 446 b 775 761 653 553 730 651 b 800 1042 817 864 827 967 b 628 1153 773 1118 712 1157 b 627 1152 628 1153 627 1153 b 627 1152 627 1152 627 1152 b 426 972 569 1148 487 1113 b 347 477 377 856 350 689 b 194 542 320 507 273 542 b 73 489 162 542 113 528 b -4 265 22 440 -4 364 b 81 59 -4 220 14 120 b 216 9 118 25 163 9 b 243 10 225 9 234 9 b 382 168 310 17 360 75 b 594 -21 417 75 495 -21 b 678 18 629 -21 656 -6 b 775 202 723 68 747 152 b 844 324 791 231 813 270 b 1024 460 888 401 952 449 b 1205 383 1098 471 1170 440 b 1250 274 1233 337 1242 302 b 1322 172 1260 234 1268 203 b 1490 192 1366 147 1444 149 b 1521 345 1515 216 1542 262 z m 604 837 b 686 1016 641 981 674 1010 b 704 1014 690 1018 696 1019 b 731 950 720 1001 729 979 b 564 604 736 858 667 717 b 604 837 571 677 586 764 z m 239 91 b 196 155 222 91 205 116 b 286 436 176 238 191 383 b 325 315 309 432 325 383 b 239 91 325 210 288 91 z "},"":{"ha":1224,"x_min":0,"x_max":0,"o":"m 1196 519 b 1052 764 1177 610 1127 695 b 908 804 987 825 938 819 b 834 640 856 777 827 698 b 898 518 842 571 866 547 b 977 421 919 497 947 472 b 982 199 1015 359 1016 269 b 802 77 947 130 883 87 b 602 58 683 64 634 60 b 597 57 600 57 598 57 b 509 494 605 276 576 423 b 394 545 478 528 440 545 b 393 545 394 545 393 545 b 309 440 353 543 318 465 b 305 407 302 423 298 414 b 353 307 323 390 339 353 b 295 184 334 263 314 219 b 209 80 243 89 216 80 b 202 87 207 80 204 82 b 200 256 190 112 189 178 b 246 415 210 330 229 395 b 249 444 252 423 253 433 b 97 520 235 476 155 516 b 32 495 58 523 40 508 b -9 288 2 445 -13 372 b 45 76 -6 208 14 130 b 165 -9 77 20 118 -9 b 166 -9 165 -9 166 -9 b 336 125 231 -8 289 38 b 374 214 353 157 365 189 b 383 27 388 140 393 64 b 144 -472 185 -106 99 -338 b 301 -581 167 -543 222 -581 b 315 -581 305 -581 310 -581 b 316 -581 315 -581 315 -581 b 482 -486 369 -581 430 -569 b 592 -33 533 -402 569 -254 b 592 -32 592 -32 592 -32 b 592 -32 592 -32 592 -32 b 593 -14 592 -26 593 -20 b 781 -11 638 -11 692 -11 b 835 -8 799 -11 817 -10 b 1020 68 901 1 964 26 b 1172 267 1088 118 1141 187 b 1196 519 1205 349 1213 436 z m 333 -308 b 252 -451 307 -391 277 -444 b 226 -388 237 -437 228 -416 b 268 -231 223 -345 239 -289 b 378 -80 296 -177 334 -126 b 333 -308 371 -154 353 -240 z "},"":{"ha":1175,"x_min":0,"x_max":0,"o":"m 1127 519 b 942 769 1096 617 1032 703 b 780 795 863 827 811 815 b 719 608 726 760 705 670 b 803 483 736 533 765 511 b 901 387 829 463 862 438 b 932 146 949 323 962 226 b 751 -8 903 66 835 23 b 531 -54 627 -53 566 -49 b 475 -56 510 -57 492 -57 b 467 -18 473 -42 470 -29 b 273 180 434 95 331 154 b 308 207 286 186 298 195 b 317 215 311 209 314 212 b 389 358 338 234 387 288 b 342 480 390 407 374 449 b 223 534 312 509 271 527 b 69 489 170 541 112 524 b -6 345 38 465 1 420 b -4 336 -6 342 -5 339 b -5 329 -5 334 -5 332 b 39 295 -5 321 -2 311 b 115 274 64 285 91 277 b 194 298 160 267 187 275 b 202 360 199 314 200 336 b 229 452 205 397 208 449 b 337 378 286 460 325 434 b 294 233 343 354 330 279 b 289 227 292 231 291 229 b 237 199 268 210 248 200 b 237 199 237 199 237 199 b 235 199 236 199 235 199 b 149 158 211 204 179 189 b 103 45 118 127 92 79 b 148 11 107 32 119 16 b 278 -59 206 0 238 -13 b 48 -113 195 -44 96 -69 b -21 -352 -5 -162 -41 -262 b 170 -527 -9 -406 31 -500 b 235 -534 193 -532 214 -534 b 299 -526 258 -534 279 -531 b 357 -500 321 -522 340 -513 b 396 -466 371 -490 384 -479 b 484 -145 468 -388 487 -253 b 722 -114 560 -146 652 -126 b 797 -97 742 -111 778 -101 b 990 8 868 -79 934 -44 b 1132 243 1057 70 1106 152 b 1127 519 1157 335 1155 431 z m 343 -475 b 290 -499 327 -486 310 -494 b 176 -500 257 -508 219 -508 b 6 -346 84 -482 24 -427 b 64 -136 -13 -259 21 -167 b 182 -102 105 -106 137 -102 b 337 -136 225 -102 294 -127 b 392 -336 381 -202 392 -261 b 343 -475 393 -369 387 -437 z "},"":{"ha":1381,"x_min":0,"x_max":0,"o":"m 1354 206 b 1190 383 1322 279 1265 341 b 942 441 1116 425 1030 445 b 745 390 872 438 806 421 b 679 480 731 422 710 454 b 500 528 632 521 571 537 b 356 364 427 519 376 459 b 297 463 341 400 321 435 b 137 544 251 518 196 545 b 78 494 111 543 90 525 b 78 459 68 467 75 461 b 176 43 139 403 196 130 b -68 -514 -36 -110 -122 -368 b 108 -628 -40 -591 22 -631 b 123 -627 113 -628 118 -628 b 289 -460 158 -626 226 -602 b 398 63 344 -337 380 -161 b 569 -2 443 17 499 -4 b 696 55 603 -1 654 15 b 772 282 750 106 775 182 b 769 308 772 289 771 298 b 982 317 842 343 917 347 b 1104 145 1053 285 1102 216 b 1089 22 1106 88 1096 52 b 1102 -110 1078 -19 1069 -52 b 1261 -189 1129 -158 1199 -201 b 1366 -70 1296 -182 1343 -156 b 1354 206 1394 29 1389 124 z m 118 -323 b 31 -486 84 -422 51 -474 b 5 -428 16 -473 7 -454 b 175 -75 -4 -336 67 -192 b 118 -323 167 -149 147 -240 z m 506 447 b 557 377 526 448 546 420 b 564 271 565 347 568 310 b 422 186 507 233 471 211 b 420 220 421 197 420 208 b 506 447 416 326 453 445 z m 467 101 b 444 117 458 102 451 107 b 447 118 445 117 446 117 b 447 118 447 118 447 118 b 535 171 493 141 515 157 b 467 101 519 143 497 118 z "},"":{"ha":1642,"x_min":0,"x_max":0,"o":"m 1603 375 b 1425 601 1567 471 1506 549 b 1169 673 1351 648 1262 673 b 910 604 1077 673 988 649 b 758 458 846 566 794 517 b 732 408 748 442 739 425 b 591 131 661 251 640 207 b 540 91 569 104 552 91 b 533 98 538 91 535 93 b 530 270 519 123 518 191 b 580 434 542 346 563 413 b 584 462 588 442 589 452 b 418 541 568 496 482 537 b 347 515 375 543 355 528 b 325 471 338 502 331 487 b 159 527 286 520 231 539 b 56 474 131 523 91 510 b -10 264 12 428 -10 357 b 76 57 -10 217 8 113 b 181 20 105 33 141 20 b 204 21 189 20 196 21 b 328 157 264 28 308 77 b 361 87 337 131 348 107 b 492 0 396 30 441 0 b 494 0 493 0 493 0 b 681 140 564 1 629 49 b 696 167 687 149 691 158 b 723 214 706 184 713 196 b 827 394 739 243 764 288 b 1022 519 870 468 940 512 b 1236 432 1105 525 1191 490 b 1297 321 1273 384 1286 349 b 1389 215 1312 280 1325 249 b 1581 224 1442 187 1532 185 b 1603 375 1608 247 1634 291 z m 200 99 b 170 143 192 99 179 112 b 166 298 157 186 155 246 b 242 426 178 358 205 403 b 272 312 257 421 272 381 b 200 99 272 202 237 99 z "},"":{"ha":1676,"x_min":0,"x_max":0,"o":"m 1633 361 b 1425 576 1584 457 1513 531 b 1160 621 1345 616 1254 632 b 911 520 1069 611 982 576 b 778 352 852 474 806 417 b 758 297 770 334 763 316 b 650 -15 706 120 692 75 b 649 -18 649 -16 649 -17 b 585 -118 606 -107 589 -117 b 577 -103 584 -117 581 -115 b 626 389 547 -11 587 324 b 620 440 632 399 636 416 b 446 534 591 486 505 538 b 412 523 433 533 421 530 b 390 497 403 517 395 508 b 374 453 384 484 379 469 b 187 520 331 510 270 533 b 74 465 157 516 112 502 b 1 245 26 417 1 343 b 88 35 1 199 20 95 b 210 -9 122 5 163 -9 b 236 -8 219 -9 227 -9 b 353 100 277 -4 325 20 b 437 -175 366 -10 394 -113 b 537 -239 466 -218 500 -239 b 538 -239 537 -239 538 -239 b 828 229 682 -239 828 224 b 855 294 836 248 845 269 b 1033 445 889 375 952 429 b 1259 379 1116 461 1206 434 b 1334 270 1302 334 1320 299 b 1440 171 1355 230 1371 199 b 1630 202 1497 148 1587 156 b 1633 361 1654 229 1675 277 z m 245 73 b 215 119 236 73 224 87 b 211 281 201 164 200 226 b 286 414 223 343 250 390 b 317 295 302 409 317 368 b 245 73 317 181 282 73 z "},"":{"ha":1118,"x_min":0,"x_max":0,"o":"m 1106 724 b 914 940 1072 809 1006 884 b 752 959 834 989 782 977 b 696 792 699 926 680 846 b 783 683 715 726 745 707 b 884 601 810 666 844 645 b 922 389 934 546 950 461 b 746 248 896 318 833 268 b 532 203 619 220 567 210 b 422 177 497 196 480 192 b 413 326 421 219 418 286 b 265 556 394 462 374 552 b 188 519 240 556 205 543 b 192 457 176 500 177 478 b 199 452 193 455 196 453 b 200 446 198 450 199 448 b 227 119 229 395 249 191 b -3 -345 34 -3 -49 -223 b 142 -438 20 -405 71 -438 b 150 -437 145 -438 147 -437 b 150 -437 150 -437 150 -437 b 151 -437 150 -437 150 -437 b 337 -291 203 -435 279 -408 b 421 109 384 -197 412 -62 b 737 161 508 132 560 139 b 795 171 756 163 776 167 b 984 268 865 188 930 221 b 1119 480 1050 325 1096 398 b 1106 724 1142 562 1137 647 z m 189 -200 b 108 -352 162 -285 132 -342 b 93 -350 102 -354 98 -353 b 69 -296 78 -339 70 -321 b 233 -2 67 -217 134 -98 b 189 -200 224 -65 207 -139 z m 257 627 b 257 627 257 627 257 627 b 309 646 277 627 295 634 b 329 686 321 658 329 672 b 254 754 329 721 293 754 b 181 708 213 754 186 737 b 200 649 178 692 182 667 b 257 627 214 635 234 627 z "},"":{"ha":1364,"x_min":0,"x_max":0,"o":"m 1345 421 b 1225 632 1326 513 1285 586 b 1026 686 1170 673 1102 692 b 811 602 952 680 878 651 b 673 449 755 561 708 509 b 647 398 664 432 655 416 b 520 141 581 256 558 206 b 508 146 516 137 511 143 b 493 275 494 163 498 206 b 475 472 490 328 486 394 b 395 556 464 550 420 558 b 222 371 322 551 222 444 b 222 371 222 371 222 371 b 231 254 221 339 226 296 b 240 151 235 217 240 180 b 234 106 241 111 234 106 b 234 106 234 106 234 106 b 197 220 228 109 212 134 b 179 424 186 283 179 361 b 179 425 179 424 179 425 b 501 680 233 484 431 676 b 514 694 508 680 514 686 b 500 707 513 701 507 707 b 180 464 421 703 244 530 b 185 504 181 481 183 494 b 391 775 275 571 348 667 b 416 1051 432 877 441 977 b 251 1160 390 1126 331 1165 b 250 1160 251 1160 250 1160 b 250 1160 250 1160 250 1160 b 119 1082 203 1156 158 1129 b 5 791 66 1017 27 917 b -2 265 -20 646 -22 469 b -2 258 -2 262 -2 260 b -2 255 -2 257 -2 256 b -1 254 -2 255 -1 254 b -1 254 -1 254 -1 254 b 69 80 6 187 31 126 b 210 6 108 32 158 6 b 219 6 213 6 216 6 b 266 30 237 7 253 15 b 305 231 300 70 306 155 b 321 119 308 194 313 155 b 388 -17 336 44 358 -1 b 417 -25 397 -23 407 -25 b 456 -14 429 -25 442 -21 b 582 139 512 17 554 84 b 620 207 599 169 607 183 b 722 391 636 237 660 282 b 892 525 765 466 825 514 b 1056 453 960 537 1025 508 b 1093 348 1080 409 1087 376 b 1156 251 1101 310 1108 279 b 1312 272 1196 227 1268 230 b 1345 421 1336 295 1361 340 z m 228 849 b 306 1026 263 991 295 1020 b 323 1023 311 1027 316 1029 b 323 1023 323 1023 323 1023 b 350 961 339 1011 348 990 b 189 620 355 871 289 732 b 228 849 196 692 211 778 z "},"":{"ha":1264,"x_min":0,"x_max":0,"o":"m 1237 282 b 1043 514 1194 379 1127 459 b 785 596 967 564 877 592 b 533 538 694 599 607 579 b 393 400 473 504 425 456 b 371 351 385 384 377 368 b 328 225 353 299 340 258 b 250 102 277 81 254 101 b 240 114 250 102 246 103 b 197 310 223 146 206 221 b 197 501 189 393 189 467 b 419 769 294 567 373 662 b 450 1045 464 870 475 971 b 269 1160 423 1124 359 1165 b 269 1160 269 1160 269 1160 b 269 1160 269 1160 269 1160 b 61 982 209 1156 124 1121 b -21 453 7 860 -21 682 b -21 453 -21 453 -21 453 b -21 452 -21 453 -21 452 b -3 250 -19 412 -13 306 b 80 61 10 170 38 105 b 215 0 117 21 164 0 b 236 1 222 0 229 0 b 447 298 351 19 403 191 b 473 347 455 313 464 329 b 650 449 511 418 569 446 b 869 354 732 452 820 414 b 937 242 909 305 925 270 b 1037 133 956 201 970 169 b 1226 134 1091 103 1180 97 b 1237 282 1251 155 1274 198 z m 328 1023 b 349 1023 335 1027 342 1027 b 377 960 366 1010 376 989 b 202 616 383 869 310 728 b 328 1023 218 773 272 995 z "},"":{"ha":1788,"x_min":0,"x_max":0,"o":"m 1755 336 b 1572 541 1714 429 1651 500 b 1334 579 1501 579 1419 592 b 1105 472 1250 566 1171 529 b 979 301 1050 425 1007 367 b 960 247 971 284 965 266 b 890 26 927 136 909 77 b 890 26 890 26 890 26 b 874 -14 884 11 879 -2 b 853 -63 868 -29 861 -45 b 852 -65 853 -64 852 -64 b 815 -115 833 -105 821 -119 b 816 -5 803 -106 810 -80 b 839 209 821 57 830 134 b 859 454 852 322 863 420 b 823 514 856 479 844 499 b 630 526 775 546 692 542 b 523 342 591 516 556 456 b 477 135 498 257 482 165 b 476 132 477 134 476 133 b 480 231 472 139 466 163 b 521 385 491 282 507 339 b 537 470 541 453 544 462 b 408 517 521 492 458 515 b 318 487 368 519 337 508 b 309 483 316 486 313 484 b 185 332 284 469 226 439 b 197 474 188 372 192 421 b 182 524 205 490 200 509 b 31 527 153 551 84 570 b -12 383 9 509 -5 461 b 20 61 -21 274 -14 99 b 142 15 47 30 101 15 b 180 21 157 15 171 17 b 201 48 199 29 201 42 b 201 50 201 49 201 49 b 201 50 201 50 201 50 b 187 146 194 99 190 128 b 181 202 183 173 182 180 b 302 447 206 366 265 423 b 336 46 250 283 281 127 b 413 -8 360 12 387 -8 b 551 15 499 -8 549 14 b 559 26 556 17 559 21 b 583 228 559 27 568 127 b 610 370 591 287 600 335 b 634 431 620 409 629 425 b 625 315 636 411 630 360 b 671 -142 608 171 582 -45 b 793 -191 701 -174 742 -191 b 802 -191 796 -191 799 -191 b 802 -191 802 -191 802 -191 b 870 -159 827 -191 854 -185 b 948 -5 910 -94 933 -46 b 969 48 956 14 961 28 b 1047 247 981 80 999 129 b 1213 401 1080 328 1139 383 b 1416 342 1289 419 1370 395 b 1482 237 1454 299 1469 265 b 1575 143 1499 199 1513 168 b 1748 179 1626 122 1708 132 b 1755 336 1771 206 1791 254 z "},"":{"ha":1464,"x_min":0,"x_max":0,"o":"m 1434 290 b 1267 495 1398 383 1341 453 b 1040 533 1200 532 1122 546 b 817 430 960 521 882 485 b 690 264 762 384 719 327 b 670 210 682 246 675 229 b 536 -110 613 38 574 -78 b 537 0 534 -101 531 -74 b 560 212 542 61 551 138 b 580 454 573 324 584 421 b 544 513 577 479 565 499 b 353 526 497 546 414 541 b 246 343 314 516 279 456 b 201 138 222 259 206 168 b 200 135 201 137 201 136 b 204 234 196 143 190 166 b 245 386 215 284 231 341 b 261 470 265 453 267 462 b 127 518 246 491 183 517 b 43 487 89 519 60 508 b 43 486 43 487 43 486 b 42 486 42 486 42 486 b 41 485 42 485 42 485 b 41 484 41 484 41 484 b 40 483 41 483 41 483 b 40 482 40 483 40 482 b 62 50 -28 308 3 136 b 138 -3 85 16 112 -3 b 275 20 223 -3 273 19 b 283 31 279 22 282 26 b 306 231 283 32 291 131 b 333 371 314 289 324 337 b 356 431 343 410 351 425 b 347 316 359 412 353 362 b 393 -136 331 174 305 -40 b 514 -185 423 -168 464 -185 b 523 -184 517 -185 520 -184 b 523 -184 523 -184 523 -184 b 590 -153 547 -184 571 -174 b 754 210 677 -60 686 50 b 918 359 789 289 847 342 b 1110 300 991 377 1068 353 b 1169 196 1145 257 1158 223 b 1255 102 1184 158 1196 127 b 1422 137 1302 82 1381 90 b 1434 290 1445 162 1465 210 z "},"":{"ha":5222,"x_min":0,"x_max":0,"o":"m 5151 890 b 5031 1177 5144 992 5102 1091 b 4880 1240 4968 1251 4914 1252 b 4776 1073 4819 1219 4777 1136 b 4828 931 4774 996 4798 967 b 4900 815 4848 906 4874 874 b 4874 573 4932 742 4921 645 b 4661 467 4827 503 4751 465 b 4442 474 4531 469 4477 472 b 4319 475 4404 475 4387 476 b 4076 534 4254 527 4142 541 b 4075 534 4076 534 4075 534 b 3888 463 4060 533 3964 524 b 3803 297 3836 421 3808 365 b 3801 292 3802 296 3802 294 b 3768 185 3797 274 3785 226 b 3715 118 3749 141 3730 116 b 3655 187 3691 122 3671 145 b 3634 644 3620 279 3612 455 b 3643 714 3636 668 3640 692 b 3749 713 3679 714 3714 713 b 4030 730 3871 713 3980 717 b 4096 788 4074 740 4101 764 b 3987 809 4093 803 4074 826 b 3657 793 3916 795 3788 792 b 3758 1065 3682 916 3718 1015 b 3759 1065 3758 1065 3759 1065 b 3760 1066 3759 1066 3759 1066 b 3760 1066 3760 1066 3760 1066 b 3760 1067 3760 1067 3760 1067 b 3761 1069 3760 1068 3761 1068 b 3758 1111 3767 1083 3766 1098 b 3612 1164 3735 1147 3666 1165 b 3435 1053 3544 1170 3483 1132 b 3350 802 3396 990 3367 902 b 3240 809 3288 806 3246 808 b 3240 809 3240 809 3240 809 b 3161 773 3207 813 3165 798 b 3176 744 3160 767 3160 754 b 3217 730 3185 738 3199 733 b 3340 724 3218 729 3267 727 b 3334 614 3336 688 3334 651 b 3379 283 3332 492 3348 378 b 3378 282 3379 283 3378 282 b 3376 277 3378 281 3377 279 b 3225 54 3306 114 3253 55 b 3217 62 3223 54 3220 56 b 3215 245 3203 88 3202 160 b 3268 419 3227 325 3249 397 b 3271 449 3275 427 3277 438 b 3096 533 3255 485 3163 528 b 3021 505 3050 535 3030 519 b 2997 458 3012 491 3004 475 b 2822 518 2956 511 2899 531 b 2713 461 2793 514 2750 500 b 2646 296 2677 423 2654 367 b 2646 295 2646 295 2646 295 b 2644 288 2646 293 2645 291 b 2611 181 2640 270 2628 223 b 2558 115 2593 137 2573 112 b 2499 183 2534 118 2514 141 b 2477 641 2463 276 2455 451 b 2486 711 2480 665 2483 688 b 2592 710 2522 710 2558 710 b 2874 726 2714 710 2823 714 b 2939 784 2917 737 2944 760 b 2830 805 2936 800 2917 823 b 2500 789 2759 791 2631 788 b 2602 1061 2526 913 2562 1011 b 2602 1062 2602 1062 2602 1062 b 2603 1063 2602 1062 2603 1063 b 2603 1063 2603 1063 2603 1063 b 2603 1064 2603 1063 2603 1064 b 2604 1065 2604 1064 2604 1065 b 2601 1108 2611 1080 2610 1094 b 2455 1161 2579 1143 2509 1161 b 2278 1050 2388 1167 2326 1129 b 2193 799 2240 987 2210 899 b 2084 806 2131 802 2089 805 b 2084 806 2084 806 2084 806 b 2004 769 2050 810 2008 795 b 2019 741 2003 763 2004 751 b 2060 726 2028 735 2042 730 b 2183 720 2061 726 2110 723 b 2177 611 2179 684 2177 648 b 2279 154 2175 428 2212 262 b 2511 11 2337 60 2417 11 b 2540 13 2521 11 2531 12 b 2541 13 2541 13 2541 13 b 2666 121 2604 19 2642 67 b 2734 18 2680 83 2701 45 b 2845 -22 2765 -8 2803 -22 b 2870 -20 2853 -22 2862 -21 b 3001 124 2933 -13 2980 39 b 3036 49 3011 96 3022 71 b 3174 -43 3072 -11 3120 -43 b 3176 -43 3175 -43 3175 -43 b 3375 106 3250 -42 3319 9 b 3416 193 3392 137 3406 167 b 3435 158 3422 181 3429 169 b 3668 15 3494 64 3574 15 b 3697 16 3677 15 3687 15 b 3697 16 3697 16 3697 16 b 3830 144 3768 23 3807 82 b 3920 48 3854 96 3889 66 b 4131 -1 3974 15 4045 -1 b 4186 1 4149 -1 4167 -1 b 4355 96 4255 6 4315 40 b 4374 400 4409 173 4428 293 b 4626 374 4434 398 4497 390 b 4685 370 4646 371 4666 370 b 4897 426 4758 370 4830 389 b 5090 620 4978 470 5044 538 b 5151 890 5137 704 5158 798 z m 2866 62 b 2834 109 2857 62 2844 76 b 2830 275 2820 155 2818 219 b 2910 411 2842 338 2871 386 b 2942 289 2926 405 2942 363 b 2866 62 2942 172 2905 62 z m 4168 59 b 4107 71 4144 57 4124 61 b 4049 197 4067 95 4049 152 b 4049 197 4049 197 4049 197 b 4089 378 4049 271 4063 333 b 4175 438 4112 417 4143 438 b 4175 438 4175 438 4175 438 b 4177 438 4176 438 4177 438 b 4178 438 4178 438 4178 438 b 4269 309 4214 441 4254 386 b 4168 59 4292 194 4261 70 z m 2123 462 b 2123 462 2123 462 2123 462 b 1864 536 2063 526 1936 544 b 1863 536 1864 536 1864 536 b 1677 465 1849 535 1753 526 b 1592 245 1611 412 1583 338 l 1592 243 b 1708 49 1601 135 1660 78 b 1920 0 1762 17 1833 0 b 1975 2 1937 0 1956 1 b 2143 98 2043 7 2103 41 b 2124 461 2208 189 2222 342 b 2123 462 2124 461 2124 461 z m 1956 61 b 1895 73 1932 59 1913 62 b 1837 199 1855 97 1837 154 b 1837 199 1837 199 1837 199 b 1878 380 1837 273 1851 335 b 1963 440 1901 418 1931 440 b 1964 440 1963 440 1963 440 b 1966 440 1964 440 1965 440 b 1966 440 1966 440 1966 440 b 2058 311 2003 443 2042 388 b 1956 61 2081 196 2049 72 z m 1612 922 b 1407 1000 1561 990 1489 1018 b 1130 798 1281 973 1188 905 b 1210 999 1150 865 1176 932 b 1117 1108 1224 1028 1170 1084 b 955 1073 1054 1138 995 1125 b 830 584 877 970 829 783 b 831 538 830 568 831 553 b 830 538 831 538 830 538 b 825 537 828 538 827 537 b 439 415 639 458 547 437 b 199 279 347 398 264 351 b 78 33 137 211 95 126 b 106 -242 60 -61 70 -157 b 312 -475 146 -336 217 -417 b 412 -508 353 -499 386 -508 b 475 -487 440 -508 461 -498 b 521 -295 527 -447 540 -355 b 426 -177 497 -222 466 -202 b 320 -90 398 -160 364 -138 b 286 166 269 -34 255 72 b 434 315 313 248 367 302 b 839 441 571 343 800 420 b 1001 5 859 272 915 120 b 1078 -35 1021 -21 1048 -35 b 1146 -15 1100 -35 1122 -28 b 1209 73 1184 6 1226 50 b 1120 266 1193 95 1150 160 b 1122 361 1120 299 1120 331 b 1306 333 1188 342 1249 333 b 1395 341 1337 333 1367 336 b 1581 444 1470 356 1533 391 b 1676 688 1638 507 1672 594 b 1612 922 1680 777 1656 863 z m 1460 718 b 1339 503 1436 633 1392 554 b 1128 445 1275 440 1204 421 b 1419 916 1166 815 1321 900 b 1460 898 1437 919 1450 913 b 1460 718 1481 865 1481 796 z "},"":{"ha":1508,"x_min":0,"x_max":0,"o":"m 1437 841 b 1316 1128 1430 943 1388 1042 b 1166 1192 1254 1203 1200 1204 b 1062 1024 1105 1170 1063 1088 b 1114 883 1060 948 1084 919 b 1186 766 1134 857 1160 825 b 1160 524 1218 693 1207 596 b 947 418 1113 454 1037 416 b 728 425 816 421 763 423 b 627 426 694 426 677 427 b 620 435 625 430 622 432 b 508 485 595 461 554 480 b 387 462 462 491 418 483 l 385 461 b 371 451 380 457 375 454 b 397 496 380 472 389 487 b 401 521 404 503 405 512 b 263 564 386 550 305 562 b 119 525 229 565 146 565 b 70 305 84 472 66 393 b 134 78 74 220 97 137 b 279 -15 173 18 223 -15 b 286 -16 282 -15 284 -16 b 373 13 336 -16 364 -7 b 342 76 383 35 362 59 b 312 186 322 94 311 133 l 312 186 b 461 353 315 272 379 343 b 499 304 484 356 487 351 b 506 280 501 297 503 289 b 531 260 509 269 518 261 b 627 325 560 257 604 286 b 640 352 633 334 637 343 b 912 325 707 351 768 344 b 971 321 932 322 952 321 b 1183 377 1044 321 1116 340 b 1376 572 1263 422 1330 489 b 1437 841 1423 656 1444 749 z "},"":{"ha":1522,"x_min":0,"x_max":0,"o":"m 1434 771 b 1324 893 1409 865 1360 889 b 1159 785 1260 899 1187 842 b 1146 635 1125 716 1134 680 b 1162 499 1154 603 1164 563 b 1036 291 1160 419 1109 335 b 854 264 980 257 917 248 b 774 487 854 362 827 437 b 650 540 733 526 683 540 b 491 474 584 540 532 518 b 409 971 488 687 460 854 b 201 1152 346 1113 261 1147 b 201 1152 201 1152 201 1152 b 201 1152 201 1152 201 1152 b 21 1037 112 1157 48 1116 b 50 756 -5 961 5 859 b 272 482 96 647 175 550 b 268 255 282 443 280 349 b 219 77 252 128 228 81 b 145 253 215 77 182 82 b 143 259 144 256 144 258 b 115 287 140 273 127 284 b 92 283 106 290 97 288 b 86 253 87 278 82 269 b 90 227 87 249 89 238 b 236 -25 101 151 125 -25 b 395 63 308 -25 362 22 b 455 166 420 93 441 129 b 599 6 478 71 529 13 b 626 5 608 5 617 5 b 768 57 682 5 730 22 b 837 164 802 88 823 127 b 995 147 887 149 940 144 b 1252 242 1087 154 1176 186 b 1422 460 1330 298 1389 374 b 1434 771 1458 556 1462 663 z m 93 949 b 122 1012 95 978 105 999 b 122 1012 122 1012 122 1012 b 149 1015 131 1019 139 1020 b 232 849 177 1001 208 939 b 270 598 253 771 267 680 b 93 949 161 712 88 856 z m 554 433 b 614 377 579 419 599 400 b 602 384 610 380 606 382 b 540 425 592 389 569 405 b 554 433 544 429 549 432 z m 649 155 b 603 88 639 114 621 88 b 513 312 552 88 513 206 b 515 350 513 326 514 338 b 654 262 559 323 606 292 b 649 155 658 224 656 186 z "},"":{"ha":1540,"x_min":0,"x_max":0,"o":"m 1425 160 b 1235 395 1384 254 1319 335 b 966 496 1153 454 1060 489 b 749 453 888 501 814 487 b 699 422 732 444 715 434 b 443 256 562 325 515 293 b 404 288 431 256 420 266 b 363 305 391 301 377 308 b 320 279 341 300 328 292 b 316 236 313 268 312 254 b 325 212 317 231 319 226 b 340 -279 356 140 451 -78 b 301 -33 330 -249 314 -166 b 292 274 286 107 283 226 b 525 669 396 372 479 511 b 538 1057 569 815 573 960 b 364 1180 507 1143 445 1186 b 364 1180 364 1180 364 1180 b 364 1180 364 1180 364 1180 b 153 934 303 1174 216 1127 b 69 204 98 766 69 521 b 69 204 69 204 69 204 b 69 204 69 204 69 204 b 70 203 69 203 69 203 b 88 -75 71 147 78 2 b 226 -400 106 -231 158 -352 b 295 -423 248 -416 271 -423 b 333 -417 308 -423 321 -421 b 491 88 520 -352 535 -104 b 465 177 484 119 475 149 b 465 177 465 177 465 177 b 467 178 466 178 466 178 b 585 240 536 212 550 220 b 595 246 588 242 591 244 b 625 262 606 252 616 257 b 651 278 634 267 643 273 b 777 347 681 295 721 317 b 1019 341 856 390 942 388 b 1164 118 1097 294 1155 204 b 1158 -28 1171 49 1164 6 b 1183 -190 1150 -77 1143 -116 b 1360 -305 1216 -251 1294 -312 b 1461 -174 1396 -301 1443 -275 b 1425 160 1482 -58 1469 58 z m 341 757 b 429 1000 381 961 418 995 b 445 997 433 1002 437 1003 b 452 750 482 959 485 867 b 296 429 422 642 366 527 b 341 757 304 532 320 655 z "},"":{"ha":1406,"x_min":0,"x_max":0,"o":"m 1292 777 b 1066 1021 1247 877 1169 961 b 892 1030 976 1073 922 1055 b 848 824 838 986 826 888 b 951 700 874 746 908 726 b 1067 610 982 682 1019 660 b 1128 357 1125 548 1150 446 b 930 181 1106 269 1021 212 b 742 122 830 147 778 132 b 730 288 741 169 737 244 b 552 550 708 444 683 546 b 458 505 521 551 476 534 b 452 489 455 500 453 495 b 268 523 410 515 349 535 b 148 468 236 519 188 506 b 69 249 96 420 69 346 b 162 39 69 202 89 99 b 293 -6 199 9 243 -6 b 320 -5 302 -6 311 -5 b 466 84 347 -2 415 12 b 518 210 491 119 508 161 b 508 51 522 141 519 83 b 263 -203 403 -11 316 -101 b 222 -469 212 -300 198 -397 b 401 -585 248 -544 311 -585 b 411 -584 405 -585 408 -584 b 411 -584 411 -584 411 -584 b 638 -417 475 -582 567 -551 b 739 16 693 -314 727 -169 b 952 67 789 30 852 44 b 1013 84 973 71 993 77 b 1205 217 1086 110 1152 156 b 1329 484 1270 292 1313 384 b 1292 777 1345 585 1332 686 z m 377 145 b 316 75 360 101 338 75 b 275 132 301 75 285 98 b 365 418 250 219 268 366 b 403 299 387 414 403 366 b 377 145 403 245 393 188 z m 362 -487 b 339 -486 354 -491 347 -490 b 310 -423 321 -472 311 -451 b 516 -82 307 -331 392 -192 b 362 -487 493 -239 425 -460 z "},"":{"ha":1564,"x_min":0,"x_max":0,"o":"m 1468 394 b 1255 610 1417 487 1344 562 b 989 675 1174 655 1082 677 b 742 602 897 673 812 648 b 612 456 683 564 639 514 b 594 407 605 441 599 424 b 498 138 548 255 534 210 b 395 56 467 93 431 61 b 340 71 374 54 357 58 b 284 205 301 101 282 169 b 284 206 284 205 284 205 b 284 206 284 206 284 206 b 284 207 284 206 284 206 b 284 207 284 207 284 207 b 332 405 276 264 283 364 b 399 424 350 420 372 426 b 440 392 431 418 435 405 b 464 370 442 384 447 370 b 468 370 465 370 466 370 b 494 385 479 371 488 376 b 503 462 510 406 508 445 b 502 462 503 462 503 462 b 313 560 474 552 366 565 b 312 560 313 560 312 560 b 146 486 303 559 215 551 b 71 255 88 430 63 353 l 71 252 b 178 42 80 133 134 72 b 349 -4 223 12 280 -4 b 411 0 369 -4 389 -3 b 608 199 505 11 570 78 b 615 218 610 205 612 211 b 691 396 627 247 644 290 b 866 521 723 469 785 513 b 1093 441 948 530 1039 497 b 1171 334 1137 396 1156 362 b 1280 233 1193 295 1210 264 b 1469 246 1337 207 1427 207 b 1468 394 1493 269 1512 312 z "},"":{"ha":1382,"x_min":0,"x_max":0,"o":"m 1292 599 b 1102 814 1249 698 1184 772 b 854 845 1028 852 942 863 b 615 722 767 828 685 785 b 484 533 558 669 513 604 b 464 473 476 513 470 494 b 406 275 438 381 421 322 b 301 93 363 147 324 97 b 292 100 298 93 296 95 b 271 273 276 124 268 192 b 302 444 274 351 287 421 b 303 473 309 453 309 463 b 129 534 284 505 193 537 b 119 533 126 534 123 534 b 61 500 83 529 68 513 b 40 282 34 445 26 367 b 123 69 52 199 83 122 b 263 -4 164 16 212 -10 b 265 -4 264 -4 264 -4 b 420 125 326 4 379 48 b 420 125 420 125 420 125 b 420 126 420 126 420 126 b 436 159 426 136 431 147 b 453 204 442 174 448 189 b 473 258 461 224 466 238 b 555 476 486 294 505 347 b 728 649 590 565 651 626 b 940 593 807 671 892 649 b 1007 483 978 548 994 512 b 1104 384 1025 441 1040 408 b 1284 430 1157 363 1242 377 b 1292 599 1308 459 1329 512 z m 184 575 b 244 558 200 561 221 555 b 244 558 244 558 244 558 b 293 584 263 560 281 569 b 308 629 304 598 310 614 b 226 693 304 667 265 697 b 159 636 185 688 161 668 b 184 575 158 618 165 593 z "},"":{"ha":1601,"x_min":0,"x_max":0,"o":"m 1519 511 b 1358 719 1486 605 1430 677 b 1132 757 1292 758 1214 771 b 906 650 1052 744 973 707 b 775 477 851 602 806 543 b 753 422 767 459 760 441 b 629 136 692 244 646 103 b 611 263 619 159 615 206 b 591 463 608 317 603 384 b 506 549 580 543 533 551 b 322 361 429 544 322 435 b 322 360 322 361 322 361 b 332 241 321 328 327 284 b 342 136 337 204 341 166 b 335 91 343 95 335 91 b 335 91 335 91 335 91 b 287 269 326 95 302 143 b 283 496 275 363 273 457 b 503 772 379 564 457 662 b 529 1054 546 876 556 979 b 353 1165 501 1131 439 1170 b 352 1165 353 1165 353 1165 b 352 1165 352 1165 352 1165 b 212 1085 302 1161 254 1134 b 92 789 157 1020 115 917 b 83 252 65 641 62 461 b 83 252 83 252 83 252 b 84 244 84 249 84 247 b 84 242 84 243 84 243 b 85 241 84 242 85 241 b 85 241 85 241 85 241 b 159 64 93 173 119 111 b 310 -12 201 15 255 -12 b 319 -12 313 -12 316 -12 b 369 13 339 -11 356 -3 b 411 217 406 54 412 140 b 427 104 415 180 420 140 b 499 -36 443 27 467 -18 b 530 -43 509 -41 519 -43 b 572 -32 543 -43 557 -40 b 691 98 622 -5 663 48 b 691 98 691 98 691 98 b 691 99 691 99 691 99 b 728 172 707 125 719 151 b 731 181 729 175 730 178 b 749 220 738 194 743 205 b 837 422 763 253 783 302 b 1006 577 874 504 934 559 b 1196 518 1079 596 1155 572 b 1251 412 1229 474 1241 440 b 1334 316 1265 372 1277 341 b 1502 352 1381 295 1460 304 b 1519 511 1525 379 1547 428 z m 329 848 b 412 1028 367 993 400 1022 b 430 1026 417 1030 422 1031 b 458 962 447 1013 457 991 b 288 615 464 870 393 729 b 329 848 295 688 311 776 z "},"":{"ha":1018,"x_min":0,"x_max":0,"o":"m 948 506 b 827 793 940 608 898 707 b 676 856 764 867 710 868 b 572 689 615 835 573 752 b 624 547 571 612 594 584 b 696 431 645 522 671 490 b 670 189 728 358 718 261 b 457 83 623 119 547 81 b 238 90 327 85 273 88 b 104 91 198 92 181 92 b 103 90 103 90 103 90 b 69 33 82 88 69 46 b 86 17 70 22 78 17 b 423 -10 187 19 235 14 b 482 -14 442 -13 462 -14 b 693 42 554 -14 627 5 b 887 236 774 86 841 154 b 948 506 933 320 954 414 z "},"":{"ha":1476,"x_min":0,"x_max":0,"o":"m 1399 883 b 1250 1155 1381 983 1330 1078 b 1093 1203 1180 1223 1126 1219 b 1007 1026 1035 1175 1001 1089 b 1073 890 1013 950 1040 923 b 1157 782 1096 867 1125 838 b 1156 539 1196 713 1196 615 b 955 411 1116 464 1045 419 b 736 396 825 400 771 397 b 647 388 705 394 688 393 b 603 458 636 412 622 436 b 603 459 603 459 603 459 b 602 459 603 459 602 459 b 344 533 542 524 415 541 b 343 533 343 533 343 533 b 156 462 328 532 232 523 b 71 243 91 409 62 336 l 71 240 b 187 47 81 133 140 76 b 399 -2 242 14 313 -2 b 454 0 417 -2 435 -2 b 623 95 523 5 582 39 b 670 315 663 152 684 233 b 930 315 731 320 795 319 b 989 317 950 314 970 315 b 1194 395 1062 325 1132 351 b 1366 608 1270 447 1329 521 b 1399 883 1404 696 1416 791 z m 435 59 b 375 70 412 56 392 60 b 317 196 335 95 317 151 b 317 197 317 197 317 197 b 357 377 317 270 331 333 b 443 437 380 416 410 437 b 443 437 443 437 443 437 b 445 437 444 437 444 437 b 446 437 445 437 445 437 b 537 308 482 441 522 385 b 435 59 560 194 528 69 z "},"":{"ha":1432,"x_min":0,"x_max":0,"o":"m 1413 325 b 1279 563 1393 425 1347 508 b 1053 644 1217 614 1139 642 b 805 579 968 646 882 624 b 646 432 741 542 687 492 b 616 381 635 416 625 399 b 538 237 582 318 558 273 b 513 194 528 221 520 206 b 477 136 501 173 489 155 b 424 129 462 120 449 119 b 359 333 387 157 364 228 b 359 361 359 342 359 352 b 574 461 445 411 520 440 b 596 469 582 464 589 466 b 597 469 596 469 596 469 b 597 470 597 469 597 469 b 599 471 598 470 599 470 b 615 522 622 485 624 507 b 547 540 604 540 578 551 b 361 444 518 529 446 495 b 366 499 363 474 365 495 b 366 504 366 501 366 503 b 366 504 366 504 366 504 l 366 504 b 279 569 358 546 327 569 b 278 569 279 569 279 569 b 144 505 222 569 151 535 b 143 504 143 505 143 505 b 143 504 143 504 143 504 b 143 504 143 504 143 504 b 141 287 130 431 130 357 b 1 134 88 241 39 190 b -3 115 -3 131 -6 125 b 22 86 -1 105 8 89 b 26 86 23 86 24 86 b 42 94 32 86 38 89 b 158 213 81 139 120 179 b 178 159 164 195 170 176 b 331 0 216 69 275 8 b 331 0 331 0 331 0 b 331 0 331 0 331 0 b 365 -3 343 -2 354 -3 b 504 66 421 -3 469 21 b 506 68 505 66 505 67 b 507 69 507 68 507 69 b 582 180 552 132 561 146 b 701 364 601 210 629 255 b 897 488 751 440 820 484 b 1083 393 974 493 1049 455 b 1125 276 1111 343 1118 306 b 1196 165 1134 234 1141 201 b 1374 169 1241 135 1324 129 b 1413 325 1402 192 1431 237 z "},"":{"ha":1365,"x_min":0,"x_max":0,"o":"m 1283 477 b 1125 686 1251 572 1196 644 b 901 725 1060 725 983 738 b 676 618 821 712 743 675 b 544 446 620 571 575 512 b 521 392 535 429 528 410 b 434 157 479 271 458 211 b 377 102 404 89 391 99 b 320 170 354 105 335 128 b 299 628 286 262 278 438 b 308 698 302 652 305 675 b 409 697 342 697 376 697 b 677 713 525 697 629 701 b 739 771 719 724 744 747 b 635 792 736 786 718 810 b 322 776 568 778 446 775 b 418 1048 345 900 380 998 b 418 1049 418 1048 418 1049 b 419 1050 419 1049 419 1049 b 419 1050 419 1050 419 1050 b 420 1051 419 1050 419 1050 b 420 1052 420 1051 420 1052 b 417 1095 426 1066 426 1081 b 278 1148 396 1130 330 1148 b 110 1036 214 1154 156 1115 b 29 786 73 973 45 886 b -75 792 -30 789 -70 792 b -75 792 -75 792 -75 792 b -151 756 -107 797 -147 782 b -137 728 -152 750 -151 738 b -97 713 -128 721 -115 717 b 19 707 -96 713 -50 710 b 13 597 16 671 14 635 b 110 141 12 415 47 249 b 332 -2 166 47 242 -2 b 360 0 341 -2 350 -1 b 360 0 360 0 360 0 b 455 64 405 4 434 30 b 458 68 456 65 457 66 b 459 69 458 68 458 68 b 462 76 460 71 461 74 b 470 92 465 81 468 86 b 515 190 495 142 501 158 b 604 391 529 223 550 272 b 774 546 642 473 702 528 b 962 485 846 564 922 540 b 1016 379 994 442 1006 407 b 1097 283 1030 340 1041 309 b 1265 319 1144 262 1223 272 b 1283 477 1288 346 1311 395 z "}}}
